<svg enable-background="new 0 0 30 30" height="30" viewBox="0 0 30 30" width="30" xmlns="http://www.w3.org/2000/svg"><path d="m30 13.501c0-7.456-6.715-13.501-15-13.501-8.283 0-15 6.045-15 13.501s6.717 13.5 15 13.5c1.415 0 2.782-.181 4.078-.51l8.223 3.509-2.559-6.239c3.217-2.476 5.258-6.153 5.258-10.26zm-22.785 2.999c-1.658 0-3.001-1.343-3.001-2.999 0-1.658 1.343-3 3.001-3 1.656 0 2.999 1.342 2.999 3 0 1.656-1.343 2.999-2.999 2.999zm7.785 0c-1.656 0-2.999-1.343-2.999-2.999 0-1.658 1.343-3 2.999-3 1.658 0 3 1.342 3 3 0 1.656-1.342 2.999-3 2.999zm4.895-2.999c0-1.658 1.344-3 3-3 1.657 0 3 1.342 3 3 0 1.656-1.343 2.999-3 2.999s-3-1.343-3-2.999z" fill="#4167b1"/></svg>