<svg enable-background="new 0 0 48 45.607" height="45.607" viewBox="0 0 48 45.607" width="48" xmlns="http://www.w3.org/2000/svg"><g fill="#28221f"><path d="m24.03 4.101c-1.501 2.279-5.837 2.975-6.136 5.89-.197 1.925 1.418 3.051 2.07 4.99.542 1.758-.358 2.935-.358 2.935-.251-.916-.627-1.654-1.236-2.436-.888-1.141-3.421-3.255-3.244-6.893.195-3.978 6.636-5.236 8.904-8.587 2.271 3.351 8.709 4.609 8.904 8.587.179 3.638-2.355 5.752-3.242 6.893-.609.782-.985 1.52-1.237 2.436 0 0-.898-1.176-.357-2.935.651-1.939 2.268-3.065 2.069-4.99-.299-2.916-4.633-3.612-6.137-5.89z"/><path d="m3.899 18.687c1.704 2.134 1.026 6.471 3.707 7.656 1.769.783 3.34-.405 5.386-.426 1.838.028 2.679 1.246 2.679 1.246-.948-.044-1.767.086-2.698.424-1.359.492-4.153 2.248-7.557.955-3.724-1.414-2.93-7.929-5.416-11.122 3.888-1.123 7.075-6.86 10.919-5.816 3.514.956 4.742 4.019 5.553 5.215.555.82 1.142 1.406 1.934 1.929 0 0-1.396.491-2.901-.567-1.643-1.219-2.214-3.103-4.106-3.51-2.866-.617-4.867 3.291-7.5 4.016"/><path d="m11.562 42.291c2.556-.962 6.471 1.023 8.427-1.16 1.291-1.44.646-3.301 1.259-5.253.595-1.74 2.013-2.163 2.013-2.163-.333.888-.463 1.707-.431 2.697.048 1.444.854 4.645-1.427 7.481-2.495 3.105-8.446.338-12.251 1.714.133-4.044-4.337-8.848-2.156-12.181 1.994-3.046 5.287-3.269 6.675-3.67.952-.273 1.69-.65 2.432-1.242 0 0 .036 1.479-1.436 2.583-1.667 1.186-3.636 1.147-4.607 2.82-1.472 2.536 1.627 5.645 1.502 8.374z"/><path d="m36.453 42.273c-.125-2.727 2.974-5.836 1.501-8.371-.972-1.673-2.94-1.635-4.606-2.82-1.472-1.104-1.437-2.584-1.437-2.584.741.592 1.48.969 2.432 1.243 1.39.401 4.682.623 6.676 3.67 2.181 3.332-2.29 8.136-2.156 12.18-3.805-1.376-9.756 1.391-12.25-1.712-2.281-2.838-1.476-6.038-1.428-7.483.033-.989-.098-1.808-.432-2.696 0 0 1.419.422 2.014 2.164.613 1.951-.031 3.812 1.259 5.252 1.955 2.183 5.871.197 8.427 1.157z"/><path d="m44.1 18.723c-2.631-.725-4.632-4.632-7.498-4.015-1.891.407-2.463 2.291-4.105 3.51-1.504 1.059-2.9.567-2.9.567.792-.522 1.379-1.108 1.934-1.928.81-1.197 2.039-4.26 5.553-5.216 3.843-1.044 7.03 4.692 10.918 5.815-2.484 3.193-1.691 9.708-5.414 11.121-3.404 1.293-6.199-.462-7.559-.954-.931-.338-1.749-.466-2.697-.424 0 0 .841-1.218 2.68-1.246 2.046.02 3.615 1.208 5.385.426 2.678-1.186 1.999-5.523 3.703-7.656z"/><path d="m17.658 25.22c0 3.501 2.848 6.35 6.348 6.35 3.501 0 6.349-2.849 6.349-6.35s-2.848-6.348-6.349-6.348c-3.5 0-6.348 2.847-6.348 6.348m1.875 0c0-2.467 2.007-4.474 4.474-4.474 2.468 0 4.474 2.007 4.474 4.474 0 2.468-2.006 4.476-4.474 4.476-2.467-.001-4.474-2.008-4.474-4.476"/><path d="m28.731 17.097s-.339.74.323 1.228c.613.453 1.099.065 1.099.065l-.259.452.259-.13s-.275.388-1.196-.226c-.582-.388-.646-.873-.646-.873"/><path d="m33.194 27.195s-.812-.057-1.035.735c-.206.735.328 1.051.328 1.051l-.514-.081.214.196s-.46-.121-.212-1.199c.157-.681.588-.913.588-.913"/><path d="m17.72 18.236s.601.549 1.268.068c.619-.447.398-1.027.398-1.027l.352.385-.044-.286s.284.381-.581 1.069c-.548.435-1.029.348-1.029.348"/><path d="m15.42 29.044s.699-.418.429-1.195c-.25-.721-.869-.676-.869-.676l.469-.227-.287-.04s.446-.162.857.864c.261.648.04 1.085.04 1.085"/><path d="m24.986 34.439s-.279-.781-1.099-.717c-.761.061-.874.671-.874.671l-.101-.511-.11.266s-.045-.473 1.052-.611c.694-.087 1.061.237 1.061.237"/></g></svg>