<svg enable-background="new 0 0 24 24" height="24" viewBox="0 0 24 24" width="24" xmlns="http://www.w3.org/2000/svg"><path d="m19.801 15.601c-1.182 0-2.248.489-3.011 1.274l-8.445-4.223c.033-.213.056-.43.056-.651 0-.223-.022-.439-.056-.652l8.445-4.223c.764.785 1.829 1.274 3.011 1.274 2.319 0 4.199-1.88 4.199-4.2s-1.88-4.2-4.199-4.2c-2.32 0-4.2 1.881-4.2 4.2 0 .223.022.439.056.652l-8.446 4.223c-.763-.785-1.829-1.274-3.011-1.274-2.319 0-4.2 1.88-4.2 4.2 0 2.319 1.881 4.199 4.2 4.199 1.182 0 2.248-.489 3.011-1.274l8.445 4.223c-.033.213-.056.43-.056.652 0 2.319 1.88 4.199 4.2 4.199s4.2-1.88 4.2-4.199c0-2.321-1.88-4.2-4.199-4.2z" fill="#36c"/></svg>