<svg enable-background="new 0 0 30 30" height="30" viewBox="0 0 30 30" width="30" xmlns="http://www.w3.org/2000/svg"><path d="m93.346 9.431h-26.692c-.915 0-1.654.74-1.654 1.655v26.689c0 .916.739 1.655 1.654 1.655h26.691c.913 0 1.654-.739 1.654-1.655v-26.689c.001-.916-.74-1.655-1.653-1.655z" fill="#5fa9dd"/><path d="m87.951 20.352c.008.177.014.353.014.531 0 5.422-4.128 11.674-11.676 11.674-2.316 0-4.473-.679-6.289-1.843.321.036.646.056.978.056 1.923 0 3.694-.655 5.096-1.755-1.795-.034-3.311-1.22-3.833-2.85.252.048.51.073.773.073.372 0 .736-.051 1.079-.145-1.876-.378-3.291-2.034-3.291-4.022 0-.019 0-.034.002-.052.553.308 1.185.491 1.857.513-1.101-.734-1.823-1.992-1.823-3.414 0-.753.201-1.458.554-2.063 2.024 2.482 5.047 4.115 8.458 4.287-.07-.301-.107-.613-.107-.936 0-2.266 1.839-4.104 4.104-4.104 1.18 0 2.246.501 2.994 1.298.934-.185 1.812-.525 2.606-.995-.307.956-.956 1.762-1.805 2.269.83-.1 1.621-.32 2.357-.647-.55.823-1.247 1.546-2.048 2.125z" fill="#fff"/><path d="m28.346 0h-26.691c-.916 0-1.655.74-1.655 1.655v26.689c0 .917.739 1.656 1.655 1.656h26.691c.913 0 1.654-.739 1.654-1.655v-26.69c0-.915-.741-1.655-1.654-1.655z" fill="#5fa9dd"/><path d="m22.951 10.921c.008.177.014.353.014.531 0 5.422-4.128 11.674-11.676 11.674-2.316 0-4.472-.679-6.289-1.843.322.036.647.056.978.056 1.923 0 3.694-.655 5.096-1.755-1.795-.034-3.311-1.22-3.833-2.85.252.048.509.073.773.073.372 0 .736-.051 1.079-.145-1.875-.378-3.291-2.034-3.291-4.022 0-.018 0-.034.002-.052.553.308 1.185.492 1.857.513-1.101-.734-1.823-1.992-1.823-3.414 0-.753.201-1.458.554-2.063 2.024 2.482 5.047 4.115 8.458 4.287-.07-.301-.107-.613-.107-.936 0-2.266 1.839-4.104 4.104-4.104 1.18 0 2.246.501 2.994 1.298.934-.185 1.812-.525 2.606-.995-.307.956-.956 1.762-1.805 2.269.83-.1 1.621-.321 2.357-.648-.55.824-1.247 1.547-2.048 2.126z" fill="#fff"/></svg>