<svg enable-background="new 0 0 30 30" height="30" viewBox="0 0 30 30" width="30" xmlns="http://www.w3.org/2000/svg"><path d="m28.344 0h-26.69c-.916 0-1.654.742-1.654 1.656v26.689c0 .915.738 1.655 1.654 1.655h26.689c.917 0 1.657-.74 1.657-1.654v-26.69c0-.914-.74-1.656-1.656-1.656z" fill="#dd4b38"/><path d="m17.512 14.5v.45c0 3.678-2.729 6.661-6.408 6.661-3.681 0-6.664-2.982-6.664-6.661 0-3.68 2.983-6.663 6.664-6.663 1.725 0 3.292.662 4.475 1.737l-1.797 1.796c-.718-.62-1.652-.996-2.678-.996-2.279 0-4.123 1.847-4.123 4.125s1.844 4.124 4.123 4.124c1.835 0 3.388-1.197 3.924-2.854h-3.924v-2.222h6.408z" fill="#fff"/><path d="m25.441 15.892h-1.904v1.903h-1.904v-1.903h-1.904v-1.903h1.904v-1.904h1.904v1.904h1.904z" fill="#fff"/></svg>