<svg enable-background="new 0 0 144 144" height="144" viewBox="0 0 144 144" width="144" xmlns="http://www.w3.org/2000/svg"><path d="m72 2c22.056 0 40 17.944 40 40 0 12.892-6.302 25.074-16.858 32.586l-3.119 2.221 3.604 1.292c27.109 9.72 45.524 35.235 46.344 63.901h-139.942c.82-28.666 19.235-54.182 46.344-63.901l3.604-1.292-3.119-2.221c-10.556-7.512-16.858-19.694-16.858-32.586 0-22.056 17.944-40 40-40m0-2c-23.197 0-42 18.803-42 42 0 14.13 6.999 26.602 17.698 34.216-27.805 9.97-47.698 36.548-47.698 67.784h144c0-31.236-19.893-57.814-47.698-67.784 10.699-7.614 17.698-20.086 17.698-34.216 0-23.197-18.803-42-42-42z" fill="#36c"/></svg>