<svg enable-background="new 0 0 72 72" height="72" viewBox="0 0 72 72" width="72" xmlns="http://www.w3.org/2000/svg"><path d="m59.402 1c6.395 0 11.598 5.204 11.598 11.6 0 6.397-5.203 11.602-11.598 11.602-3.153 0-6.106-1.251-8.316-3.522l-.51-.524-.654.327-25.336 12.668-.654.327.114.723c.104.659.154 1.248.154 1.802s-.05 1.143-.154 1.799l-.114.723.655.327 25.335 12.668.654.327.51-.524c2.207-2.27 5.16-3.52 8.316-3.52 6.395 0 11.598 5.204 11.598 11.6 0 6.394-5.203 11.597-11.598 11.597-6.396 0-11.6-5.203-11.6-11.598 0-.543.049-1.117.155-1.805l.111-.72-.652-.326-25.336-12.668-.655-.327-.51.525c-2.204 2.27-5.157 3.52-8.315 3.52-6.396-.001-11.6-5.204-11.6-11.599 0-6.396 5.204-11.6 11.6-11.6 3.158 0 6.111 1.25 8.315 3.52l.51.525.655-.327 25.336-12.668.652-.326-.111-.72c-.105-.687-.155-1.26-.155-1.805 0-6.397 5.204-11.601 11.6-11.601m0-1c-6.961 0-12.6 5.641-12.6 12.6 0 .668.068 1.319.167 1.957l-25.336 12.668c-2.288-2.355-5.487-3.823-9.033-3.823-6.956 0-12.6 5.639-12.6 12.6 0 6.959 5.644 12.598 12.6 12.598 3.546 0 6.745-1.467 9.033-3.823l25.336 12.668c-.098.64-.167 1.289-.167 1.957 0 6.958 5.639 12.598 12.6 12.598 6.959 0 12.598-5.639 12.598-12.598 0-6.961-5.639-12.6-12.598-12.6-3.546 0-6.743 1.467-9.033 3.823l-25.335-12.668c.101-.638.166-1.289.166-1.955 0-.668-.065-1.317-.166-1.957l25.336-12.668c2.292 2.355 5.486 3.825 9.033 3.825 6.958 0 12.597-5.643 12.597-12.602s-5.639-12.6-12.598-12.6z" fill="#36c"/></svg>