<svg enable-background="new 0 0 72 72" height="72" viewBox="0 0 72 72" width="72" xmlns="http://www.w3.org/2000/svg"><g fill="#36c"><path d="m36 1c19.299 0 35 15.701 35 35s-15.701 35-35 35-35-15.701-35-35 15.701-35 35-35m0 57.601c18.418 0 33.402-10.139 33.402-22.601 0-12.46-14.984-22.598-33.402-22.598-18.417 0-33.4 10.138-33.4 22.598 0 12.462 14.983 22.601 33.4 22.601m0-58.601c-19.879 0-36 16.118-36 36 0 19.884 16.121 36 36 36 19.884 0 36-16.116 36-36 0-19.882-16.116-36-36-36zm0 57.601c-17.892 0-32.4-9.671-32.4-21.601 0-11.927 14.508-21.598 32.4-21.598 17.895 0 32.402 9.671 32.402 21.598 0 11.93-14.507 21.601-32.402 21.601z"/><path d="m36 19.003c9.375 0 17.002 7.625 17.002 16.997 0 9.374-7.627 17-17.002 17-9.373 0-16.998-7.626-16.998-17 0-9.372 7.625-16.997 16.998-16.997m0-1c-9.94 0-17.998 8.057-17.998 17.997 0 9.944 8.058 18 17.998 18 9.942 0 18.002-8.056 18.002-18 0-9.94-8.06-17.997-18.002-17.997z"/><path d="m36 29.802c3.418 0 6.2 2.78 6.2 6.198 0 3.42-2.781 6.202-6.2 6.202-3.417 0-6.198-2.782-6.198-6.202 0-3.418 2.781-6.198 6.198-6.198m0-1c-3.975 0-7.198 3.223-7.198 7.198 0 3.978 3.223 7.202 7.198 7.202 3.98 0 7.2-3.225 7.2-7.202 0-3.976-3.22-7.198-7.2-7.198z"/></g></svg>