<svg enable-background="new 0 0 72 72" height="72" viewBox="0 0 72 72" width="72" xmlns="http://www.w3.org/2000/svg"><path d="m36 1c19.299 0 35 14.087 35 31.402 0 9.164-4.457 17.85-12.229 23.831l-.605.466.29.706 5.215 12.718-17.491-7.464-.311-.132-.328.083c-3.117.791-6.327 1.192-9.542 1.192-19.299 0-35-14.086-35-31.4.001-17.315 15.702-31.402 35.001-31.402m18.947 39.6c4.521 0 8.2-3.677 8.2-8.198s-3.679-8.2-8.2-8.2-8.2 3.679-8.2 8.2 3.678 8.198 8.2 8.198m-18.947 0c4.521 0 8.2-3.677 8.2-8.198s-3.679-8.2-8.2-8.2c-4.52 0-8.198 3.679-8.198 8.2s3.678 8.198 8.198 8.198m-18.685 0c4.521 0 8.198-3.677 8.198-8.198s-3.677-8.2-8.198-8.2c-4.522 0-8.202 3.679-8.202 8.2s3.68 8.198 8.202 8.198m18.685-40.6c-19.88 0-36 14.508-36 32.402s16.12 32.4 36 32.4c3.396 0 6.677-.434 9.788-1.223l19.734 8.421-6.141-14.974c7.721-5.942 12.619-14.766 12.619-24.624 0-17.894-16.116-32.402-36-32.402zm18.947 39.6c-3.975 0-7.2-3.223-7.2-7.198 0-3.979 3.225-7.2 7.2-7.2 3.978 0 7.2 3.221 7.2 7.2 0 3.975-3.223 7.198-7.2 7.198zm-18.947 0c-3.975 0-7.198-3.223-7.198-7.198 0-3.979 3.223-7.2 7.198-7.2 3.979 0 7.2 3.221 7.2 7.2 0 3.975-3.221 7.198-7.2 7.198zm-18.685 0c-3.979 0-7.202-3.223-7.202-7.198 0-3.979 3.223-7.2 7.202-7.2 3.975 0 7.198 3.221 7.198 7.2 0 3.975-3.222 7.198-7.198 7.198z" fill="#36c"/></svg>