<?xml version="1.0" encoding="UTF-8" standalone="no"?>

<svg enable-background="new 0 0 12 9.752" height="9.752" viewBox="0 0 12 9.752" width="12" xmlns="http://www.w3.org/2000/svg"><path d="m10.771 2.429c.004.106.008.212.008.319 0 3.253-2.477 7.004-7.006 7.004-1.389 0-2.683-.407-3.773-1.106.193.021.389.034.587.034 1.154 0 2.216-.394 3.058-1.054-1.076-.021-1.986-.732-2.3-1.71.151.03.305.045.465.045.223 0 .44-.029.646-.087-1.126-.226-1.975-1.22-1.975-2.413 0-.011 0-.021.001-.03.332.184.711.294 1.115.308-.66-.442-1.093-1.197-1.093-2.05 0-.451.12-.875.332-1.238 1.214 1.489 3.027 2.469 5.074 2.572-.042-.18-.064-.368-.064-.562 0-1.358 1.102-2.461 2.463-2.461.707 0 1.348.3 1.797.777.56-.11 1.087-.314 1.563-.597-.184.574-.573 1.058-1.082 1.361.497-.06.972-.191 1.413-.388-.33.495-.748.929-1.229 1.276z" fill="#55acee"/></svg>