<?xml version="1.0" encoding="utf-8"?>
<!-- Generator: Adobe Illustrator 16.0.0, SVG Export Plug-In . SVG Version: 6.00 Build 0)  -->
<!DOCTYPE svg PUBLIC "-//W3C//DTD SVG 1.1//EN" "http://www.w3.org/Graphics/SVG/1.1/DTD/svg11.dtd">
<svg version="1.1" id="Layer_1" xmlns="http://www.w3.org/2000/svg" xmlns:xlink="http://www.w3.org/1999/xlink" x="0px" y="0px"
	 width="102.136px" height="142.03px" viewBox="0 0 102.136 142.03" enable-background="new 0 0 102.136 142.03"
	 xml:space="preserve">
<path fill="#FDFEFF" d="M97.276,111.805c0.871-2.17,1.59-4.373,2.035-6.621c0.029-0.129,0.053-0.26,0.08-0.393
	c0.098-0.52,0.16-1.041,0.235-1.562l-9.847-0.775L97.276,111.805z M91.84,121.391c2.086-2.709,3.74-5.584,5.032-8.551l-8.411-10.49
	l-22.529-1.772L91.84,121.391z M24.663,101.24l59.594,27.812c0.123-0.098,0.256-0.178,0.378-0.275
	c2.526-2.049,4.7-4.285,6.601-6.641l-27.008-21.695l-38.555-3.035C25.669,98.801,25.286,100.093,24.663,101.24 M83.451,94.563
	l5.501,6.859l10.816,0.854c0.006-0.061,0.021-0.117,0.026-0.176c0.218-1.696,0.34-3.396,0.328-5.101l-14.966-5.086
	C84.761,92.91,84.18,93.805,83.451,94.563 M2.182,87.796c-0.696,3.546-0.98,6.848-0.717,9.783c0.003,0.025,0.01,0.048,0.012,0.075
	c-0.208,10.626,4.234,21.318,13.453,29.628c18.326,16.52,48.611,17.459,68.442,2.42l-59.2-27.629
	c-1.476,2.084-3.895,3.455-6.645,3.455c-4.5-0.002-8.15-3.65-8.15-8.151c0-1.912,0.687-3.646,1.791-5.039l-8.292-7.737
	C2.613,85.682,2.371,86.757,2.182,87.796 M22.938,91.325c1.444,1.294,2.407,3.08,2.644,5.105l37.312,2.938L42.039,82.618
	c-1.29,0.855-2.835,1.361-4.502,1.361c-1.918,0-3.66-0.689-5.053-1.802L22.938,91.325z M42.806,82l21.792,17.506l23.035,1.813
	l-4.908-6.121c-1.404,1.146-3.174,1.865-5.13,1.865c-4.502,0-8.151-3.65-8.151-8.149c0-0.662,0.1-1.297,0.25-1.912l-24.542-8.339
	C44.664,79.969,43.851,81.108,42.806,82 M3.149,83.539l8.634,8.061c1.474-1.465,3.502-2.368,5.743-2.368
	c1.737,0,3.341,0.553,4.664,1.479l9.552-9.151c-1.456-1.474-2.356-3.49-2.355-5.727c-0.001-0.227,0.048-0.44,0.065-0.661
	l-22.589-2.68C5.321,76.322,4.065,80.025,3.149,83.539 M43.603,70.434c1.282,1.439,2.084,3.316,2.084,5.396
	c0,0.662-0.1,1.297-0.249,1.912l24.542,8.34c0.658-1.768,1.904-3.229,3.51-4.172L63.164,64.192
	c-1.239,0.762-2.685,1.224-4.246,1.224c-2.364,0-4.474-1.021-5.962-2.628L43.603,70.434z M63.951,63.629l10.383,17.82
	c0.999-0.438,2.099-0.688,3.262-0.688c4.499,0,8.149,3.649,8.149,8.151c0,0.725-0.125,1.412-0.303,2.08l14.697,4.995
	c0.074-2.535-0.216-5.31-0.805-8.267L65.173,62.424C64.807,62.865,64.401,63.273,63.951,63.629 M7.26,71.568l22.291,2.643
	c0.579-2.866,2.671-5.151,5.395-6.07l-7.152-21.708c-0.492,0.095-0.994,0.156-1.514,0.156c-2.003,0-3.812-0.75-5.232-1.95
	C15.786,53.522,10.859,62.822,7.26,71.568 M28.731,46.199l7.133,21.656c0.54-0.113,1.098-0.177,1.671-0.177
	c2.074,0,3.943,0.798,5.381,2.073l9.424-7.71c-0.979-1.344-1.574-2.987-1.574-4.778c0-1.436,0.404-2.767,1.057-3.938l-18.746-10.4
	C32.06,44.467,30.526,45.629,28.731,46.199 M29.551,30.982c2.871,1.262,4.881,4.122,4.881,7.457c0,1.315-0.341,2.543-0.896,3.644
	l18.79,10.424c1.479-2.046,3.869-3.391,6.59-3.391c4.5,0,8.148,3.647,8.148,8.148c0,1.625-0.525,3.101-1.352,4.362L99.026,86.3
	C91.68,53.919,50.511,1.589,50.511,1.589l-0.049,0.805c-0.019-0.021-0.035-0.044-0.045-0.055l-0.051-0.751
	C50.367,1.588,40.446,14.271,29.551,30.982"/>
</svg>
