<?xml version="1.0" encoding="utf-8"?>
<!-- Generator: Adobe Illustrator 16.0.0, SVG Export Plug-In . SVG Version: 6.00 Build 0)  -->
<!DOCTYPE svg PUBLIC "-//W3C//DTD SVG 1.1//EN" "http://www.w3.org/Graphics/SVG/1.1/DTD/svg11.dtd">
<svg version="1.1" id="Layer_1" xmlns="http://www.w3.org/2000/svg" xmlns:xlink="http://www.w3.org/1999/xlink" x="0px" y="0px"
	 width="360.508px" height="150.805px" viewBox="0 0 360.508 150.805" enable-background="new 0 0 360.508 150.805"
	 xml:space="preserve">
<path fill="#FDFDFE" d="M105.732,116.233c0.872-2.171,1.59-4.374,2.035-6.622c0.03-0.129,0.053-0.26,0.081-0.393
	c0.098-0.52,0.16-1.041,0.235-1.562l-9.847-0.776L105.732,116.233z M100.297,125.818c2.086-2.708,3.74-5.583,5.032-8.551
	l-8.411-10.489l-22.53-1.773L100.297,125.818z M33.119,105.667l59.594,27.813c0.123-0.097,0.256-0.177,0.378-0.275
	c2.526-2.049,4.7-4.286,6.601-6.64l-27.009-21.696l-38.554-3.035C34.126,103.229,33.742,104.521,33.119,105.667 M91.907,98.99
	l5.501,6.859l10.817,0.853c0.005-0.06,0.02-0.117,0.026-0.175c0.218-1.696,0.34-3.396,0.328-5.101l-14.966-5.086
	C93.218,97.337,92.637,98.233,91.907,98.99 M10.638,92.224c-0.696,3.546-0.98,6.848-0.717,9.783c0.003,0.025,0.01,0.048,0.012,0.075
	c-0.208,10.627,4.234,21.318,13.453,29.628c18.326,16.52,48.611,17.46,68.442,2.421l-59.2-27.63
	c-1.476,2.084-3.895,3.455-6.645,3.455c-4.5-0.001-8.15-3.649-8.15-8.15c0-1.912,0.687-3.646,1.791-5.039l-8.292-7.737
	C11.07,90.11,10.827,91.185,10.638,92.224 M31.394,95.752c1.444,1.294,2.407,3.08,2.644,5.106l37.312,2.938L50.495,87.045
	c-1.29,0.856-2.835,1.361-4.502,1.361c-1.918,0-3.66-0.689-5.053-1.801L31.394,95.752z M51.262,86.427l21.792,17.506l23.036,1.813
	l-4.908-6.121c-1.404,1.147-3.174,1.865-5.13,1.865c-4.502,0-8.151-3.65-8.151-8.149c0-0.662,0.099-1.297,0.249-1.912L53.608,83.09
	C53.12,84.397,52.307,85.535,51.262,86.427 M11.606,87.966l8.634,8.061c1.474-1.465,3.502-2.369,5.743-2.369
	c1.737,0,3.341,0.553,4.664,1.479l9.552-9.151c-1.456-1.474-2.356-3.491-2.355-5.727c-0.001-0.227,0.048-0.44,0.065-0.661
	l-22.589-2.68C13.778,80.749,12.522,84.452,11.606,87.966 M52.059,74.862c1.282,1.439,2.084,3.316,2.084,5.396
	c0,0.662-0.1,1.297-0.249,1.912l24.542,8.34c0.658-1.768,1.904-3.229,3.509-4.172L71.62,68.619
	c-1.239,0.762-2.685,1.224-4.246,1.224c-2.364,0-4.474-1.021-5.962-2.628L52.059,74.862z M72.407,68.057l10.383,17.82
	c0.999-0.438,2.098-0.688,3.262-0.688c4.499,0,8.149,3.649,8.149,8.151c0,0.725-0.125,1.412-0.302,2.08l14.696,4.995
	c0.075-2.535-0.215-5.309-0.804-8.266L73.63,66.852C73.264,67.292,72.857,67.7,72.407,68.057 M15.717,75.995l22.291,2.643
	c0.579-2.866,2.671-5.151,5.395-6.07L36.251,50.86c-0.492,0.094-0.994,0.156-1.514,0.156c-2.003,0-3.812-0.75-5.232-1.95
	C24.242,57.949,19.316,67.249,15.717,75.995 M37.188,50.626l7.133,21.656c0.54-0.113,1.098-0.176,1.671-0.176
	c2.074,0,3.943,0.798,5.381,2.073l9.424-7.71c-0.978-1.344-1.575-2.987-1.575-4.778c0-1.436,0.405-2.767,1.057-3.938l-18.746-10.4
	C40.516,48.895,38.983,50.057,37.188,50.626 M38.008,35.409c2.871,1.262,4.881,4.122,4.881,7.457c0,1.316-0.341,2.543-0.896,3.644
	l18.79,10.424c1.479-2.046,3.87-3.391,6.59-3.391c4.5,0,8.149,3.648,8.149,8.149c0,1.625-0.526,3.1-1.352,4.362l33.312,24.674
	C100.137,58.347,58.968,6.017,58.968,6.017l-0.049,0.805c-0.019-0.022-0.035-0.044-0.045-0.055l-0.051-0.751
	C58.823,6.016,48.903,18.698,38.008,35.409"/>
<g enable-background="new    ">
	<path fill="#FFFFFF" d="M140.33,90.965c-1.965,1.86-4.643,2.79-8.033,2.79c-4.41,0-8.07-1.695-10.98-5.085l3.78-5.625
		c1.109,1.14,2.25,2.018,3.42,2.632c1.17,0.615,2.234,0.923,3.195,0.923c1.02,0,1.823-0.315,2.408-0.945s0.877-1.529,0.877-2.7
		v-14.31h-10.8V61.85h19.08v21.285C143.277,86.495,142.294,89.105,140.33,90.965z"/>
	<path fill="#FFFFFF" d="M168.702,72.289c2.13,2.341,3.195,5.551,3.195,9.631c0,0.63-0.016,1.109-0.045,1.439h-16.92
		c0.39,1.381,1.065,2.438,2.025,3.173c0.959,0.735,2.129,1.103,3.51,1.103c1.05,0,2.062-0.21,3.038-0.63
		c0.975-0.42,1.868-1.035,2.677-1.846l4.185,4.186c-1.26,1.41-2.783,2.482-4.567,3.218c-1.785,0.735-3.802,1.102-6.052,1.102
		c-2.61,0-4.891-0.51-6.84-1.529c-1.95-1.02-3.442-2.46-4.478-4.32c-1.035-1.859-1.552-4.02-1.552-6.479
		c0-2.49,0.524-4.688,1.575-6.593c1.05-1.905,2.535-3.375,4.455-4.41c1.919-1.035,4.14-1.553,6.66-1.553
		C163.527,68.78,166.571,69.949,168.702,72.289z M164.112,79.085c0-1.41-0.413-2.543-1.237-3.397
		c-0.826-0.855-1.913-1.283-3.263-1.283c-1.26,0-2.317,0.421-3.172,1.26c-0.855,0.841-1.417,1.98-1.688,3.421H164.112z"/>
	<path fill="#FFFFFF" d="M187.264,69.86c1.334-0.749,2.857-1.125,4.567-1.125v7.335c-0.271-0.029-0.675-0.045-1.215-0.045
		c-1.89,0-3.42,0.443-4.59,1.327c-1.171,0.886-1.845,2.093-2.025,3.623v12.42h-8.01V69.05h8.01v4.05
		C184.841,71.69,185.928,70.61,187.264,69.86z"/>
	<path fill="#FFFFFF" d="M219.101,69.05v24.345h-8.01v-3.96c-1.65,2.82-4.245,4.26-7.785,4.32c-2.64,0-4.747-0.848-6.322-2.543
		c-1.575-1.694-2.362-3.952-2.362-6.772V69.05h8.01v13.095c0,1.38,0.352,2.46,1.058,3.24c0.704,0.78,1.657,1.17,2.857,1.17
		c1.409-0.029,2.521-0.547,3.33-1.553c0.81-1.005,1.215-2.317,1.215-3.938V69.05H219.101z"/>
	<path fill="#FFFFFF" d="M233.725,74.27c-0.689,0-1.244,0.128-1.664,0.383c-0.421,0.255-0.631,0.638-0.631,1.147
		c0,0.54,0.33,0.975,0.99,1.305s1.711,0.69,3.15,1.08c1.739,0.511,3.188,1.013,4.342,1.508c1.155,0.495,2.152,1.245,2.993,2.25
		c0.839,1.005,1.26,2.317,1.26,3.938c0,2.46-0.952,4.387-2.857,5.782c-1.905,1.395-4.388,2.093-7.447,2.093
		c-2.07,0-4.05-0.293-5.94-0.878c-1.89-0.585-3.57-1.447-5.039-2.588l2.52-5.175c1.379,0.961,2.827,1.703,4.342,2.228
		c1.516,0.525,2.947,0.788,4.298,0.788c0.78,0,1.402-0.128,1.868-0.383c0.465-0.255,0.697-0.622,0.697-1.103
		c0-0.6-0.338-1.064-1.013-1.395s-1.732-0.69-3.173-1.08c-1.71-0.51-3.12-1.013-4.23-1.508c-1.109-0.495-2.077-1.237-2.902-2.228
		c-0.824-0.99-1.236-2.279-1.236-3.87c0-2.459,0.929-4.388,2.789-5.782c1.859-1.396,4.26-2.093,7.2-2.093
		c1.771,0,3.517,0.24,5.243,0.72c1.725,0.48,3.352,1.186,4.882,2.115l-2.7,5.22C238.315,75.095,235.735,74.27,233.725,74.27z"/>
	<path fill="#FFFFFF" d="M267.295,71.052c1.86,1.546,2.805,3.713,2.836,6.503v15.84h-7.875V90.65
		c-1.621,2.07-4.066,3.105-7.336,3.105c-2.58,0-4.612-0.698-6.098-2.093c-1.484-1.396-2.227-3.232-2.227-5.513
		c0-2.31,0.802-4.109,2.407-5.399c1.604-1.29,3.907-1.95,6.907-1.98h6.346V78.5c0-1.171-0.398-2.07-1.193-2.7
		s-1.942-0.945-3.442-0.945c-1.021,0-2.167,0.165-3.442,0.495s-2.559,0.81-3.848,1.439l-2.205-5.399
		c1.98-0.9,3.877-1.567,5.693-2.003c1.814-0.435,3.696-0.652,5.646-0.652C262.825,68.735,265.436,69.507,267.295,71.052z
		 M260.545,87.432c0.9-0.585,1.47-1.342,1.711-2.272v-2.114h-4.771c-2.25,0-3.375,0.84-3.375,2.52c0,0.84,0.292,1.508,0.878,2.003
		c0.584,0.495,1.387,0.742,2.407,0.742C258.595,88.31,259.646,88.017,260.545,87.432z"/>
	<path fill="#FFFFFF" d="M275.756,60.005h8.01v33.39h-8.01V60.005z"/>
	<path fill="#FFFFFF" d="M309.956,72.289c2.129,2.341,3.195,5.551,3.195,9.631c0,0.63-0.016,1.109-0.045,1.439h-16.921
		c0.39,1.381,1.065,2.438,2.025,3.173s2.13,1.103,3.51,1.103c1.05,0,2.062-0.21,3.038-0.63c0.975-0.42,1.867-1.035,2.677-1.846
		l4.185,4.186c-1.26,1.41-2.782,2.482-4.566,3.218c-1.785,0.735-3.803,1.102-6.053,1.102c-2.61,0-4.891-0.51-6.84-1.529
		c-1.951-1.02-3.443-2.46-4.479-4.32c-1.034-1.859-1.552-4.02-1.552-6.479c0-2.49,0.524-4.688,1.575-6.593
		c1.049-1.905,2.535-3.375,4.455-4.41c1.919-1.035,4.14-1.553,6.66-1.553C304.78,68.78,307.825,69.949,309.956,72.289z
		 M305.366,79.085c0-1.41-0.413-2.543-1.238-3.397c-0.825-0.855-1.912-1.283-3.262-1.283c-1.26,0-2.318,0.421-3.173,1.26
		c-0.854,0.841-1.417,1.98-1.688,3.421H305.366z"/>
	<path fill="#FFFFFF" d="M356.081,71.255c1.59,1.68,2.385,3.945,2.385,6.795v15.345h-8.01v-13.05c0-1.38-0.36-2.468-1.08-3.263
		c-0.721-0.795-1.695-1.192-2.926-1.192c-1.41,0.03-2.527,0.548-3.352,1.553c-0.826,1.005-1.238,2.317-1.238,3.938v12.015h-8.01
		v-13.05c0-1.38-0.359-2.468-1.08-3.263c-0.72-0.795-1.695-1.192-2.925-1.192c-1.411,0.03-2.536,0.548-3.375,1.553
		c-0.841,1.005-1.261,2.317-1.261,3.938v12.015h-7.965V69.05h7.965v4.005c0.84-1.41,1.928-2.482,3.264-3.218
		c1.334-0.734,2.887-1.103,4.656-1.103c1.98,0,3.676,0.48,5.086,1.44s2.414,2.295,3.015,4.005c0.78-1.8,1.897-3.157,3.353-4.072
		s3.172-1.373,5.152-1.373C352.375,68.735,354.49,69.575,356.081,71.255z"/>
</g>
<g enable-background="new    ">
	<path fill="#FFFFFF" d="M141.643,108.795h1.8l-4.266,12.6h-1.8l-3.258-10.404l-3.312,10.404h-1.782l-4.248-12.6h1.854l3.33,10.746
		l3.312-10.746H135l3.33,10.746L141.643,108.795z"/>
	<path fill="#FFFFFF" d="M150.067,121.395v-1.332c-0.708,0.936-1.818,1.404-3.33,1.404c-0.66,0-1.239-0.126-1.737-0.378
		s-0.882-0.601-1.152-1.044c-0.27-0.444-0.405-0.942-0.405-1.494c0-0.853,0.315-1.527,0.945-2.025s1.509-0.753,2.637-0.765h3.024
		v-0.45c0-0.672-0.207-1.19-0.621-1.557s-1.017-0.55-1.809-0.55c-0.96,0-1.938,0.343-2.934,1.026l-0.702-1.152
		c0.684-0.443,1.316-0.765,1.899-0.963c0.582-0.197,1.275-0.297,2.079-0.297c1.188,0,2.106,0.291,2.754,0.873
		s0.978,1.396,0.99,2.439l0.018,6.264H150.067z M149.068,119.514c0.546-0.378,0.873-0.879,0.981-1.503v-0.954h-2.79
		c-0.756,0-1.317,0.114-1.683,0.342c-0.366,0.229-0.549,0.588-0.549,1.08s0.186,0.882,0.558,1.17
		c0.372,0.288,0.87,0.432,1.494,0.432C147.859,120.08,148.521,119.892,149.068,119.514z"/>
	<path fill="#FFFFFF" d="M159.822,120.765c-0.732,0.468-1.476,0.702-2.232,0.702s-1.368-0.226-1.836-0.675
		c-0.468-0.45-0.702-1.132-0.702-2.044v-5.273h-1.35v-1.278h1.35v-2.556h1.692v2.556h2.916v1.278h-2.916v4.968
		c0,0.528,0.096,0.906,0.288,1.134c0.192,0.229,0.48,0.343,0.864,0.343c0.456,0,0.948-0.15,1.476-0.45L159.822,120.765z"/>
	<path fill="#FFFFFF" d="M168.894,113.123c0.756,0.871,1.134,2.079,1.134,3.628c0,0.239-0.006,0.42-0.018,0.54h-7.524
		c0.132,0.852,0.489,1.529,1.071,2.033s1.299,0.756,2.151,0.756c0.563,0,1.089-0.102,1.575-0.306s0.909-0.492,1.269-0.864
		l0.918,0.954c-0.468,0.504-1.032,0.895-1.692,1.17c-0.66,0.276-1.392,0.414-2.196,0.414c-0.936,0-1.767-0.2-2.493-0.603
		s-1.29-0.969-1.692-1.701c-0.402-0.731-0.603-1.566-0.603-2.502c0-0.937,0.201-1.767,0.603-2.493
		c0.402-0.726,0.963-1.296,1.683-1.71c0.72-0.414,1.542-0.621,2.466-0.621C167.022,111.819,168.138,112.254,168.894,113.123z
		 M168.516,115.994c-0.048-0.863-0.336-1.545-0.864-2.043c-0.528-0.497-1.224-0.747-2.088-0.747c-0.84,0-1.539,0.252-2.097,0.757
		c-0.558,0.504-0.891,1.182-0.999,2.033H168.516z"/>
	<path fill="#FFFFFF" d="M175.32,112.367c0.576-0.354,1.26-0.536,2.052-0.549v1.62c-0.972-0.036-1.758,0.216-2.358,0.756
		s-0.942,1.267-1.026,2.178v5.022h-1.674v-9.522h1.674v2.053C174.3,113.24,174.744,112.722,175.32,112.367z"/>
	<path fill="#FFFFFF" d="M191.52,110.64c-0.637-0.282-1.29-0.423-1.962-0.423c-0.888,0-1.704,0.216-2.448,0.647
		c-0.744,0.433-1.332,1.018-1.764,1.755c-0.432,0.738-0.648,1.552-0.648,2.439c0,0.876,0.217,1.686,0.648,2.43
		s1.02,1.332,1.764,1.765c0.744,0.432,1.561,0.647,2.448,0.647c0.659,0,1.308-0.135,1.944-0.405c0.636-0.27,1.199-0.639,1.691-1.106
		l1.045,1.134c-0.637,0.624-1.375,1.113-2.215,1.467c-0.84,0.354-1.691,0.531-2.556,0.531c-1.2,0-2.298-0.285-3.294-0.854
		c-0.996-0.57-1.782-1.348-2.358-2.331c-0.575-0.984-0.864-2.07-0.864-3.259c0-1.176,0.291-2.253,0.873-3.23
		c0.582-0.979,1.377-1.749,2.385-2.313c1.009-0.563,2.118-0.846,3.33-0.846c0.877,0,1.726,0.165,2.547,0.495
		c0.822,0.33,1.533,0.795,2.134,1.395l-1.026,1.242C192.713,111.315,192.156,110.922,191.52,110.64z"/>
	<path fill="#FFFFFF" d="M202.689,112.431c0.738,0.408,1.313,0.975,1.728,1.701c0.414,0.726,0.621,1.557,0.621,2.493
		c0,0.936-0.207,1.77-0.621,2.502c-0.414,0.731-0.989,1.302-1.728,1.71c-0.737,0.407-1.581,0.611-2.528,0.611
		c-0.961,0-1.81-0.204-2.548-0.611c-0.737-0.408-1.313-0.976-1.728-1.701c-0.414-0.727-0.621-1.563-0.621-2.511
		c0-0.937,0.207-1.768,0.621-2.493c0.414-0.727,0.99-1.293,1.728-1.701c0.738-0.408,1.587-0.612,2.548-0.612
		C201.108,111.819,201.952,112.023,202.689,112.431z M198.495,113.709c-0.486,0.287-0.863,0.687-1.134,1.196
		c-0.271,0.511-0.405,1.089-0.405,1.737c0,0.66,0.135,1.248,0.405,1.764c0.271,0.517,0.647,0.915,1.134,1.197
		s1.041,0.423,1.666,0.423c0.611,0,1.16-0.141,1.646-0.423s0.863-0.681,1.134-1.197c0.271-0.516,0.405-1.104,0.405-1.764
		c0-0.648-0.135-1.227-0.405-1.737c-0.271-0.51-0.647-0.909-1.134-1.196c-0.486-0.288-1.035-0.433-1.646-0.433
		C199.536,113.277,198.981,113.421,198.495,113.709z"/>
	<path fill="#FFFFFF" d="M222.246,112.809c0.624,0.66,0.937,1.56,0.937,2.7v5.886h-1.692v-5.436c0-0.805-0.22-1.435-0.657-1.891
		s-1.041-0.684-1.809-0.684c-0.9,0.024-1.608,0.342-2.124,0.954c-0.517,0.611-0.774,1.397-0.774,2.357v4.698h-1.691v-5.436
		c0-0.805-0.217-1.435-0.648-1.891s-1.038-0.684-1.818-0.684c-0.899,0.024-1.61,0.342-2.133,0.954
		c-0.521,0.611-0.783,1.397-0.783,2.357v4.698h-1.674v-9.522h1.674v1.998c0.625-1.344,1.807-2.027,3.547-2.052
		c0.875,0,1.604,0.21,2.187,0.63c0.582,0.421,0.976,1.008,1.179,1.765c0.588-1.572,1.824-2.37,3.709-2.395
		C220.764,111.819,221.622,112.149,222.246,112.809z"/>
	<path fill="#FFFFFF" d="M241.038,112.809c0.624,0.66,0.936,1.56,0.936,2.7v5.886h-1.691v-5.436c0-0.805-0.219-1.435-0.657-1.891
		s-1.041-0.684-1.809-0.684c-0.9,0.024-1.608,0.342-2.124,0.954c-0.516,0.611-0.773,1.397-0.773,2.357v4.698h-1.693v-5.436
		c0-0.805-0.215-1.435-0.647-1.891s-1.038-0.684-1.817-0.684c-0.9,0.024-1.611,0.342-2.133,0.954
		c-0.522,0.611-0.783,1.397-0.783,2.357v4.698h-1.674v-9.522h1.674v1.998c0.623-1.344,1.805-2.027,3.545-2.052
		c0.877,0,1.605,0.21,2.188,0.63c0.582,0.421,0.975,1.008,1.18,1.765c0.588-1.572,1.823-2.37,3.707-2.395
		C239.555,111.819,240.414,112.149,241.038,112.809z"/>
	<path fill="#FFFFFF" d="M253.385,111.872v9.522h-1.691v-2.016c-0.625,1.355-1.801,2.046-3.529,2.069
		c-1.104,0-1.967-0.326-2.592-0.98c-0.623-0.654-0.936-1.558-0.936-2.709v-5.887h1.691v5.437c0,0.804,0.219,1.431,0.658,1.881
		c0.438,0.45,1.041,0.675,1.809,0.675c0.888-0.012,1.593-0.326,2.115-0.944c0.521-0.618,0.783-1.407,0.783-2.367v-4.681H253.385z"/>
	<path fill="#FFFFFF" d="M264.563,112.8c0.637,0.654,0.955,1.557,0.955,2.709v5.886h-1.675v-5.436c0-0.805-0.226-1.432-0.675-1.882
		c-0.45-0.449-1.071-0.675-1.863-0.675c-0.852,0.013-1.545,0.285-2.078,0.819c-0.535,0.534-0.838,1.227-0.91,2.079v5.094h-1.674
		v-9.522h1.674v2.017c0.637-1.356,1.842-2.046,3.619-2.07C263.051,111.819,263.927,112.146,264.563,112.8z"/>
	<path fill="#FFFFFF" d="M270.081,108.381c0.197,0.204,0.297,0.462,0.297,0.773c0,0.312-0.1,0.57-0.297,0.774
		c-0.198,0.204-0.447,0.306-0.748,0.306c-0.299,0-0.549-0.102-0.746-0.306c-0.198-0.204-0.297-0.462-0.297-0.774
		c0-0.312,0.099-0.569,0.297-0.773c0.197-0.204,0.447-0.307,0.746-0.307C269.633,108.074,269.882,108.177,270.081,108.381z
		 M268.505,111.872h1.674v9.522h-1.674V111.872z"/>
	<path fill="#FFFFFF" d="M278.549,120.765c-0.732,0.468-1.477,0.702-2.232,0.702s-1.368-0.226-1.836-0.675
		c-0.469-0.45-0.702-1.132-0.702-2.044v-5.273h-1.351v-1.278h1.351v-2.556h1.692v2.556h2.916v1.278h-2.916v4.968
		c0,0.528,0.096,0.906,0.287,1.134c0.192,0.229,0.48,0.343,0.865,0.343c0.455,0,0.947-0.15,1.475-0.45L278.549,120.765z"/>
	<path fill="#FFFFFF" d="M282.715,124.401c-0.498,0.372-1.082,0.559-1.754,0.559c-0.408,0-0.781-0.061-1.117-0.181
		s-0.66-0.306-0.971-0.558l0.719-1.314c0.42,0.3,0.847,0.45,1.278,0.45c0.72,0,1.261-0.408,1.62-1.224l0.359-0.847l-3.941-9.414
		h1.764l3.024,7.633l2.862-7.633h1.71l-4.356,10.872C283.613,123.477,283.213,124.029,282.715,124.401z"/>
</g>
</svg>
