<?xml version="1.0" encoding="utf-8"?>
<!-- Generator: Adobe Illustrator 16.0.0, SVG Export Plug-In . SVG Version: 6.00 Build 0)  -->
<!DOCTYPE svg PUBLIC "-//W3C//DTD SVG 1.1//EN" "http://www.w3.org/Graphics/SVG/1.1/DTD/svg11.dtd">
<svg version="1.1" id="Layer_1" xmlns="http://www.w3.org/2000/svg" xmlns:xlink="http://www.w3.org/1999/xlink" x="0px" y="0px"
	 width="360.508px" height="150.805px" viewBox="-29 269 360.508 150.805" enable-background="new -29 269 360.508 150.805"
	 xml:space="preserve">
<path fill="#FDFDFE" d="M76.732,385.233c0.872-2.171,1.59-4.374,2.035-6.622c0.03-0.129,0.053-0.26,0.081-0.393
	c0.098-0.52,0.16-1.041,0.235-1.562l-9.847-0.776L76.732,385.233z M71.297,394.818c2.086-2.708,3.74-5.583,5.032-8.551
	l-8.411-10.489l-22.53-1.773L71.297,394.818z M4.119,374.667l59.594,27.813c0.123-0.097,0.256-0.177,0.378-0.275
	c2.526-2.049,4.7-4.286,6.601-6.64l-27.009-21.696l-38.554-3.035C5.126,372.229,4.742,373.521,4.119,374.667 M62.907,367.99
	l5.501,6.859l10.817,0.853c0.005-0.06,0.02-0.117,0.026-0.175c0.218-1.696,0.34-3.396,0.328-5.101l-14.966-5.086
	C64.218,366.337,63.637,367.233,62.907,367.99 M-18.362,361.224c-0.696,3.546-0.98,6.848-0.717,9.783
	c0.003,0.025,0.01,0.048,0.012,0.075c-0.208,10.627,4.234,21.318,13.453,29.628c18.326,16.52,48.611,17.46,68.442,2.421l-59.2-27.63
	c-1.476,2.084-3.895,3.455-6.645,3.455c-4.5-0.001-8.15-3.649-8.15-8.15c0-1.912,0.687-3.646,1.791-5.039l-8.292-7.737
	C-17.93,359.11-18.173,360.185-18.362,361.224 M2.394,364.752c1.444,1.294,2.407,3.08,2.644,5.106l37.312,2.938l-20.855-16.752
	c-1.29,0.856-2.835,1.361-4.502,1.361c-1.918,0-3.66-0.689-5.053-1.801L2.394,364.752z M22.262,355.427l21.792,17.506l23.036,1.813
	l-4.908-6.121c-1.404,1.147-3.174,1.865-5.13,1.865c-4.502,0-8.151-3.65-8.151-8.149c0-0.662,0.099-1.297,0.249-1.912l-24.542-8.339
	C24.12,353.397,23.307,354.535,22.262,355.427 M-17.394,356.966l8.634,8.061c1.474-1.465,3.502-2.369,5.743-2.369
	c1.737,0,3.341,0.553,4.664,1.479l9.552-9.151c-1.456-1.474-2.356-3.491-2.355-5.727c-0.001-0.227,0.048-0.44,0.065-0.661
	l-22.589-2.68C-15.222,349.749-16.478,353.452-17.394,356.966 M23.059,343.862c1.282,1.439,2.084,3.316,2.084,5.396
	c0,0.662-0.1,1.297-0.249,1.912l24.542,8.34c0.658-1.768,1.904-3.229,3.509-4.172L42.62,337.619
	c-1.239,0.762-2.685,1.224-4.246,1.224c-2.364,0-4.474-1.021-5.962-2.628L23.059,343.862z M43.407,337.057l10.383,17.82
	c0.999-0.438,2.098-0.688,3.262-0.688c4.499,0,8.149,3.649,8.149,8.151c0,0.725-0.125,1.412-0.302,2.08l14.696,4.995
	c0.075-2.535-0.215-5.309-0.804-8.266L44.63,335.852C44.264,336.292,43.857,336.7,43.407,337.057 M-13.283,344.995l22.291,2.643
	c0.579-2.866,2.671-5.151,5.395-6.07L7.251,319.86c-0.492,0.094-0.994,0.156-1.514,0.156c-2.003,0-3.812-0.75-5.232-1.95
	C-4.758,326.949-9.684,336.249-13.283,344.995 M8.188,319.626l7.133,21.656c0.54-0.113,1.098-0.176,1.671-0.176
	c2.074,0,3.943,0.798,5.381,2.073l9.424-7.71c-0.978-1.344-1.575-2.987-1.575-4.778c0-1.436,0.405-2.767,1.057-3.938l-18.746-10.4
	C11.516,317.895,9.983,319.057,8.188,319.626 M9.008,304.409c2.871,1.262,4.881,4.122,4.881,7.457c0,1.316-0.341,2.543-0.896,3.644
	l18.79,10.424c1.479-2.046,3.87-3.391,6.59-3.391c4.5,0,8.149,3.648,8.149,8.149c0,1.625-0.526,3.1-1.352,4.362l33.312,24.674
	c-7.345-32.382-48.514-84.712-48.514-84.712l-0.049,0.805c-0.019-0.022-0.035-0.044-0.045-0.055l-0.051-0.751
	C29.823,275.016,19.903,287.698,9.008,304.409"/>
<g enable-background="new    ">
	<path fill="#FFFFFF" d="M95.807,328.746h8.784v26.16h14.256v7.488h-23.04V328.746z"/>
	<path fill="#FFFFFF" d="M143.998,339.883c2.271,2.496,3.408,5.92,3.408,10.271c0,0.672-0.016,1.185-0.048,1.536H129.31
		c0.416,1.473,1.135,2.601,2.16,3.384c1.024,0.785,2.272,1.177,3.744,1.177c1.12,0,2.2-0.224,3.24-0.673
		c1.04-0.447,1.992-1.104,2.856-1.968l4.464,4.464c-1.344,1.505-2.969,2.648-4.872,3.433c-1.904,0.784-4.056,1.176-6.456,1.176
		c-2.784,0-5.216-0.544-7.296-1.632c-2.081-1.088-3.672-2.624-4.776-4.608c-1.104-1.983-1.656-4.288-1.656-6.912
		c0-2.655,0.56-4.999,1.68-7.032c1.12-2.031,2.704-3.6,4.752-4.703c2.047-1.104,4.416-1.656,7.104-1.656
		C138.478,336.139,141.726,337.387,143.998,339.883z M139.102,347.131c0-1.504-0.44-2.712-1.32-3.624
		c-0.88-0.912-2.04-1.368-3.48-1.368c-1.344,0-2.472,0.448-3.384,1.344c-0.912,0.896-1.512,2.112-1.8,3.648H139.102z"/>
	<path fill="#FFFFFF" d="M159.19,325.746c0.847,0.849,1.272,1.944,1.272,3.288c0,1.312-0.425,2.4-1.272,3.265
		c-0.849,0.863-1.928,1.296-3.24,1.296c-1.312,0-2.393-0.433-3.24-1.296c-0.849-0.864-1.272-1.952-1.272-3.265
		c0-1.344,0.423-2.439,1.272-3.288c0.847-0.847,1.927-1.271,3.24-1.271C157.262,324.475,158.341,324.9,159.19,325.746z
		 M151.774,336.427h8.496v25.968h-8.496V336.427z"/>
	<path fill="#FFFFFF" d="M178.461,343.195c-1.536,0-2.784,0.584-3.744,1.752c-0.96,1.169-1.44,2.681-1.44,4.536
		c0,1.889,0.48,3.408,1.44,4.561c0.96,1.151,2.208,1.728,3.744,1.728c2.367,0,4.063-0.976,5.088-2.928l6.288,3.6
		c-1.024,1.984-2.561,3.521-4.608,4.608s-4.448,1.632-7.2,1.632c-2.657,0-4.992-0.544-7.008-1.632
		c-2.016-1.088-3.576-2.624-4.68-4.608c-1.104-1.983-1.656-4.288-1.656-6.912c0-2.655,0.56-4.999,1.68-7.032
		c1.12-2.031,2.695-3.6,4.728-4.703c2.032-1.104,4.375-1.656,7.032-1.656c2.592,0,4.896,0.536,6.913,1.607
		c2.016,1.073,3.583,2.585,4.703,4.536l-6.191,3.601C182.333,344.091,180.637,343.195,178.461,343.195z"/>
	<path fill="#FFFFFF" d="M214.221,339.883c2.271,2.496,3.408,5.92,3.408,10.271c0,0.672-0.017,1.185-0.049,1.536h-18.047
		c0.415,1.473,1.135,2.601,2.159,3.384c1.024,0.785,2.272,1.177,3.744,1.177c1.12,0,2.2-0.224,3.24-0.673
		c1.04-0.447,1.991-1.104,2.856-1.968l4.463,4.464c-1.344,1.505-2.969,2.648-4.871,3.433c-1.904,0.784-4.057,1.176-6.457,1.176
		c-2.783,0-5.216-0.544-7.295-1.632c-2.081-1.088-3.672-2.624-4.776-4.608c-1.104-1.983-1.656-4.288-1.656-6.912
		c0-2.655,0.56-4.999,1.681-7.032c1.119-2.031,2.703-3.6,4.752-4.703c2.047-1.104,4.416-1.656,7.104-1.656
		C208.702,336.139,211.949,337.387,214.221,339.883z M209.325,347.131c0-1.504-0.439-2.712-1.32-3.624
		c-0.88-0.912-2.039-1.368-3.479-1.368c-1.344,0-2.472,0.448-3.384,1.344c-0.912,0.896-1.512,2.112-1.801,3.648H209.325z"/>
	<path fill="#FFFFFF" d="M231.069,341.994c-0.736,0-1.328,0.137-1.775,0.408c-0.449,0.272-0.672,0.681-0.672,1.225
		c0,0.575,0.352,1.04,1.055,1.392c0.704,0.353,1.824,0.736,3.361,1.152c1.855,0.544,3.398,1.08,4.631,1.607
		c1.232,0.528,2.297,1.328,3.192,2.4s1.345,2.472,1.345,4.2c0,2.624-1.018,4.68-3.049,6.168c-2.032,1.487-4.68,2.231-7.943,2.231
		c-2.209,0-4.32-0.312-6.336-0.936c-2.017-0.624-3.809-1.544-5.377-2.76l2.688-5.521c1.472,1.024,3.016,1.816,4.632,2.376
		c1.615,0.561,3.145,0.84,4.584,0.84c0.832,0,1.496-0.136,1.992-0.408c0.496-0.271,0.744-0.663,0.744-1.176
		c0-0.64-0.36-1.136-1.08-1.488c-0.721-0.352-1.848-0.735-3.385-1.151c-1.823-0.544-3.328-1.08-4.512-1.608
		c-1.184-0.527-2.216-1.319-3.096-2.376c-0.881-1.056-1.32-2.432-1.32-4.128c0-2.623,0.992-4.68,2.977-6.168
		c1.983-1.488,4.543-2.231,7.68-2.231c1.888,0,3.752,0.256,5.592,0.768c1.84,0.513,3.576,1.265,5.209,2.256l-2.881,5.568
		C235.965,342.875,233.212,341.994,231.069,341.994z"/>
	<path fill="#FFFFFF" d="M263.709,361.051c-0.961,0.544-2.064,0.968-3.312,1.271s-2.513,0.456-3.792,0.456
		c-2.561,0-4.632-0.735-6.216-2.208c-1.584-1.472-2.377-3.504-2.377-6.096v-11.136h-3.6v-5.664h3.6v-7.2h8.496v7.2h6.721v5.664
		h-6.721v9.792c0,1.823,0.752,2.735,2.256,2.735c0.928,0,2.032-0.288,3.312-0.863L263.709,361.051z"/>
	<path fill="#FFFFFF" d="M288.813,339.883c2.271,2.496,3.408,5.92,3.408,10.271c0,0.672-0.016,1.185-0.048,1.536h-18.048
		c0.416,1.473,1.135,2.601,2.16,3.384c1.023,0.785,2.271,1.177,3.744,1.177c1.119,0,2.199-0.224,3.24-0.673
		c1.039-0.447,1.991-1.104,2.855-1.968l4.464,4.464c-1.345,1.505-2.969,2.648-4.872,3.433c-1.904,0.784-4.057,1.176-6.456,1.176
		c-2.784,0-5.216-0.544-7.296-1.632s-3.672-2.624-4.775-4.608c-1.104-1.983-1.656-4.288-1.656-6.912c0-2.655,0.559-4.999,1.68-7.032
		c1.119-2.031,2.703-3.6,4.752-4.703c2.047-1.104,4.416-1.656,7.104-1.656C283.293,336.139,286.542,337.387,288.813,339.883z
		 M283.917,347.131c0-1.504-0.44-2.712-1.32-3.624s-2.04-1.368-3.479-1.368c-1.344,0-2.473,0.448-3.385,1.344
		c-0.912,0.896-1.512,2.112-1.8,3.648H283.917z"/>
	<path fill="#FFFFFF" d="M308.613,337.291c1.423-0.8,3.048-1.2,4.872-1.2v7.823c-0.288-0.031-0.721-0.048-1.297-0.048
		c-2.016,0-3.647,0.473-4.896,1.416c-1.247,0.944-1.968,2.232-2.159,3.864v13.248h-8.545v-25.968h8.545v4.319
		C306.028,339.243,307.188,338.091,308.613,337.291z"/>
</g>
<g enable-background="new    ">
	<path fill="#FFFFFF" d="M112.643,377.795h1.8l-4.266,12.6h-1.8l-3.258-10.404l-3.312,10.404h-1.782l-4.248-12.6h1.854l3.33,10.746
		l3.312-10.746H106l3.33,10.746L112.643,377.795z"/>
	<path fill="#FFFFFF" d="M121.067,390.395v-1.332c-0.708,0.936-1.818,1.404-3.33,1.404c-0.66,0-1.239-0.126-1.737-0.378
		s-0.882-0.601-1.152-1.044c-0.27-0.444-0.405-0.942-0.405-1.494c0-0.853,0.315-1.527,0.945-2.025s1.509-0.753,2.637-0.765h3.024
		v-0.45c0-0.672-0.207-1.19-0.621-1.557s-1.017-0.55-1.809-0.55c-0.96,0-1.938,0.343-2.934,1.026l-0.702-1.152
		c0.684-0.443,1.316-0.765,1.899-0.963c0.582-0.197,1.275-0.297,2.079-0.297c1.188,0,2.106,0.291,2.754,0.873
		s0.978,1.396,0.99,2.439l0.018,6.264H121.067z M120.068,388.514c0.546-0.378,0.873-0.879,0.981-1.503v-0.954h-2.79
		c-0.756,0-1.317,0.114-1.683,0.342c-0.366,0.229-0.549,0.588-0.549,1.08s0.186,0.882,0.558,1.17
		c0.372,0.288,0.87,0.432,1.494,0.432C118.859,389.08,119.521,388.892,120.068,388.514z"/>
	<path fill="#FFFFFF" d="M130.822,389.765c-0.732,0.468-1.476,0.702-2.232,0.702s-1.368-0.226-1.836-0.675
		c-0.468-0.45-0.702-1.132-0.702-2.044v-5.273h-1.35v-1.278h1.35v-2.556h1.692v2.556h2.916v1.278h-2.916v4.968
		c0,0.528,0.096,0.906,0.288,1.134c0.192,0.229,0.48,0.343,0.864,0.343c0.456,0,0.948-0.15,1.476-0.45L130.822,389.765z"/>
	<path fill="#FFFFFF" d="M139.894,382.123c0.756,0.871,1.134,2.079,1.134,3.628c0,0.239-0.006,0.42-0.018,0.54h-7.524
		c0.132,0.852,0.489,1.529,1.071,2.033s1.299,0.756,2.151,0.756c0.563,0,1.089-0.102,1.575-0.306s0.909-0.492,1.269-0.864
		l0.918,0.954c-0.468,0.504-1.032,0.895-1.692,1.17c-0.66,0.276-1.392,0.414-2.196,0.414c-0.936,0-1.767-0.2-2.493-0.603
		s-1.29-0.969-1.692-1.701c-0.402-0.731-0.603-1.566-0.603-2.502c0-0.937,0.201-1.767,0.603-2.493
		c0.402-0.726,0.963-1.296,1.683-1.71c0.72-0.414,1.542-0.621,2.466-0.621C138.022,380.819,139.138,381.254,139.894,382.123z
		 M139.516,384.994c-0.048-0.863-0.336-1.545-0.864-2.043c-0.528-0.497-1.224-0.747-2.088-0.747c-0.84,0-1.539,0.252-2.097,0.757
		c-0.558,0.504-0.891,1.182-0.999,2.033H139.516z"/>
	<path fill="#FFFFFF" d="M146.32,381.367c0.576-0.354,1.26-0.536,2.052-0.549v1.62c-0.972-0.036-1.758,0.216-2.358,0.756
		s-0.942,1.267-1.026,2.178v5.022h-1.674v-9.522h1.674v2.053C145.3,382.24,145.744,381.722,146.32,381.367z"/>
	<path fill="#FFFFFF" d="M162.52,379.64c-0.636-0.282-1.29-0.423-1.962-0.423c-0.888,0-1.704,0.216-2.448,0.647
		c-0.744,0.433-1.332,1.018-1.764,1.755c-0.432,0.738-0.648,1.552-0.648,2.439c0,0.876,0.216,1.686,0.648,2.43
		c0.432,0.744,1.02,1.332,1.764,1.765c0.744,0.432,1.56,0.647,2.448,0.647c0.66,0,1.308-0.135,1.944-0.405
		c0.636-0.27,1.2-0.639,1.692-1.106l1.044,1.134c-0.636,0.624-1.375,1.113-2.214,1.467c-0.84,0.354-1.692,0.531-2.556,0.531
		c-1.2,0-2.298-0.285-3.294-0.854c-0.996-0.57-1.782-1.348-2.358-2.331c-0.576-0.984-0.864-2.07-0.864-3.259
		c0-1.176,0.291-2.253,0.873-3.23c0.582-0.979,1.377-1.749,2.385-2.313c1.008-0.563,2.118-0.846,3.33-0.846
		c0.876,0,1.725,0.165,2.547,0.495s1.533,0.795,2.133,1.395l-1.026,1.242C163.714,380.315,163.156,379.922,162.52,379.64z"/>
	<path fill="#FFFFFF" d="M173.689,381.431c0.738,0.408,1.314,0.975,1.728,1.701c0.414,0.726,0.621,1.557,0.621,2.493
		c0,0.936-0.207,1.77-0.621,2.502c-0.414,0.731-0.99,1.302-1.728,1.71c-0.738,0.407-1.581,0.611-2.529,0.611
		c-0.96,0-1.809-0.204-2.547-0.611c-0.738-0.408-1.314-0.976-1.728-1.701c-0.414-0.727-0.621-1.563-0.621-2.511
		c0-0.937,0.207-1.768,0.621-2.493c0.414-0.727,0.99-1.293,1.728-1.701c0.738-0.408,1.587-0.612,2.547-0.612
		C172.108,380.819,172.951,381.023,173.689,381.431z M169.495,382.709c-0.486,0.287-0.864,0.687-1.134,1.196
		c-0.27,0.511-0.405,1.089-0.405,1.737c0,0.66,0.135,1.248,0.405,1.764c0.27,0.517,0.648,0.915,1.134,1.197
		c0.486,0.282,1.041,0.423,1.665,0.423c0.612,0,1.161-0.141,1.647-0.423c0.486-0.282,0.864-0.681,1.134-1.197
		c0.27-0.516,0.405-1.104,0.405-1.764c0-0.648-0.135-1.227-0.405-1.737c-0.27-0.51-0.648-0.909-1.134-1.196
		c-0.486-0.288-1.035-0.433-1.647-0.433C170.536,382.277,169.981,382.421,169.495,382.709z"/>
	<path fill="#FFFFFF" d="M193.246,381.809c0.624,0.66,0.937,1.56,0.937,2.7v5.886h-1.692v-5.436c0-0.805-0.22-1.435-0.657-1.891
		s-1.041-0.684-1.809-0.684c-0.9,0.024-1.608,0.342-2.124,0.954c-0.517,0.611-0.774,1.397-0.774,2.357v4.698h-1.691v-5.436
		c0-0.805-0.217-1.435-0.648-1.891s-1.038-0.684-1.818-0.684c-0.899,0.024-1.61,0.342-2.133,0.954
		c-0.521,0.611-0.783,1.397-0.783,2.357v4.698h-1.674v-9.522h1.674v1.998c0.624-1.344,1.806-2.027,3.546-2.052
		c0.875,0,1.604,0.21,2.187,0.63c0.582,0.421,0.976,1.008,1.179,1.765c0.588-1.572,1.824-2.37,3.709-2.395
		C191.764,380.819,192.622,381.149,193.246,381.809z"/>
	<path fill="#FFFFFF" d="M212.038,381.809c0.624,0.66,0.936,1.56,0.936,2.7v5.886h-1.691v-5.436c0-0.805-0.219-1.435-0.657-1.891
		s-1.041-0.684-1.809-0.684c-0.9,0.024-1.608,0.342-2.124,0.954c-0.516,0.611-0.773,1.397-0.773,2.357v4.698h-1.693v-5.436
		c0-0.805-0.215-1.435-0.647-1.891s-1.038-0.684-1.817-0.684c-0.9,0.024-1.611,0.342-2.133,0.954
		c-0.522,0.611-0.783,1.397-0.783,2.357v4.698h-1.674v-9.522h1.674v1.998c0.623-1.344,1.805-2.027,3.545-2.052
		c0.877,0,1.605,0.21,2.188,0.63c0.582,0.421,0.975,1.008,1.18,1.765c0.588-1.572,1.823-2.37,3.707-2.395
		C210.555,380.819,211.414,381.149,212.038,381.809z"/>
	<path fill="#FFFFFF" d="M224.385,380.872v9.522h-1.691v-2.016c-0.625,1.355-1.801,2.046-3.529,2.069
		c-1.104,0-1.967-0.326-2.592-0.98c-0.623-0.654-0.936-1.558-0.936-2.709v-5.887h1.691v5.437c0,0.804,0.219,1.431,0.658,1.881
		c0.438,0.45,1.041,0.675,1.809,0.675c0.888-0.012,1.593-0.326,2.115-0.944c0.521-0.618,0.783-1.407,0.783-2.367v-4.681H224.385z"/>
	<path fill="#FFFFFF" d="M235.563,381.8c0.637,0.654,0.955,1.557,0.955,2.709v5.886h-1.675v-5.436c0-0.805-0.226-1.432-0.675-1.882
		c-0.45-0.449-1.071-0.675-1.863-0.675c-0.852,0.013-1.545,0.285-2.078,0.819c-0.535,0.534-0.838,1.227-0.91,2.079v5.094h-1.674
		v-9.522h1.674v2.017c0.637-1.356,1.842-2.046,3.619-2.07C234.051,380.819,234.927,381.146,235.563,381.8z"/>
	<path fill="#FFFFFF" d="M241.081,377.381c0.197,0.204,0.297,0.462,0.297,0.773c0,0.312-0.1,0.57-0.297,0.774
		c-0.198,0.204-0.447,0.306-0.748,0.306c-0.299,0-0.549-0.102-0.746-0.306c-0.198-0.204-0.297-0.462-0.297-0.774
		c0-0.312,0.099-0.569,0.297-0.773c0.197-0.204,0.447-0.307,0.746-0.307C240.633,377.074,240.882,377.177,241.081,377.381z
		 M239.505,380.872h1.674v9.522h-1.674V380.872z"/>
	<path fill="#FFFFFF" d="M249.549,389.765c-0.732,0.468-1.477,0.702-2.232,0.702s-1.368-0.226-1.836-0.675
		c-0.469-0.45-0.702-1.132-0.702-2.044v-5.273h-1.351v-1.278h1.351v-2.556h1.692v2.556h2.916v1.278h-2.916v4.968
		c0,0.528,0.096,0.906,0.287,1.134c0.192,0.229,0.48,0.343,0.865,0.343c0.455,0,0.947-0.15,1.475-0.45L249.549,389.765z"/>
	<path fill="#FFFFFF" d="M253.715,393.401c-0.498,0.372-1.082,0.559-1.754,0.559c-0.408,0-0.781-0.061-1.117-0.181
		s-0.66-0.306-0.971-0.558l0.719-1.314c0.42,0.3,0.847,0.45,1.278,0.45c0.72,0,1.261-0.408,1.62-1.224l0.359-0.847l-3.941-9.414
		h1.764l3.024,7.633l2.862-7.633h1.71l-4.356,10.872C254.613,392.477,254.213,393.029,253.715,393.401z"/>
</g>
</svg>
