<?xml version="1.0" encoding="utf-8"?>
<!-- Generator: Adobe Illustrator 16.0.0, SVG Export Plug-In . SVG Version: 6.00 Build 0)  -->
<!DOCTYPE svg PUBLIC "-//W3C//DTD SVG 1.1//EN" "http://www.w3.org/Graphics/SVG/1.1/DTD/svg11.dtd">
<svg version="1.1" id="Layer_1" xmlns="http://www.w3.org/2000/svg" xmlns:xlink="http://www.w3.org/1999/xlink" x="0px" y="0px"
	 width="360.508px" height="150.805px" viewBox="0 0 360.508 150.805" enable-background="new 0 0 360.508 150.805"
	 xml:space="preserve">
<path fill="#FDFDFE" d="M105.732,116.233c0.872-2.171,1.59-4.374,2.035-6.622c0.03-0.129,0.053-0.26,0.081-0.393
	c0.098-0.52,0.16-1.041,0.235-1.562l-9.847-0.776L105.732,116.233z M100.297,125.818c2.086-2.708,3.74-5.583,5.032-8.551
	l-8.411-10.489l-22.53-1.773L100.297,125.818z M33.119,105.667l59.594,27.813c0.123-0.097,0.256-0.177,0.378-0.275
	c2.526-2.049,4.7-4.286,6.601-6.64l-27.009-21.696l-38.554-3.035C34.126,103.229,33.742,104.521,33.119,105.667 M91.907,98.99
	l5.501,6.859l10.817,0.853c0.005-0.06,0.02-0.117,0.026-0.175c0.218-1.696,0.34-3.396,0.328-5.101l-14.966-5.086
	C93.218,97.337,92.637,98.233,91.907,98.99 M10.638,92.224c-0.696,3.546-0.98,6.848-0.717,9.783c0.003,0.025,0.01,0.048,0.012,0.075
	c-0.208,10.627,4.234,21.318,13.453,29.628c18.326,16.52,48.611,17.46,68.442,2.421l-59.2-27.63
	c-1.476,2.084-3.895,3.455-6.645,3.455c-4.5-0.001-8.15-3.649-8.15-8.15c0-1.912,0.687-3.646,1.791-5.039l-8.292-7.737
	C11.07,90.11,10.827,91.185,10.638,92.224 M31.394,95.752c1.444,1.294,2.407,3.08,2.644,5.106l37.312,2.938L50.495,87.045
	c-1.29,0.856-2.835,1.361-4.502,1.361c-1.918,0-3.66-0.689-5.053-1.801L31.394,95.752z M51.262,86.427l21.792,17.506l23.036,1.813
	l-4.908-6.121c-1.404,1.147-3.174,1.865-5.13,1.865c-4.502,0-8.151-3.65-8.151-8.149c0-0.662,0.099-1.297,0.249-1.912L53.608,83.09
	C53.12,84.397,52.307,85.535,51.262,86.427 M11.606,87.966l8.634,8.061c1.474-1.465,3.502-2.369,5.743-2.369
	c1.737,0,3.341,0.553,4.664,1.479l9.552-9.151c-1.456-1.474-2.356-3.491-2.355-5.727c-0.001-0.227,0.048-0.44,0.065-0.661
	l-22.589-2.68C13.778,80.749,12.522,84.452,11.606,87.966 M52.059,74.862c1.282,1.439,2.084,3.316,2.084,5.396
	c0,0.662-0.1,1.297-0.249,1.912l24.542,8.34c0.658-1.768,1.904-3.229,3.509-4.172L71.62,68.619
	c-1.239,0.762-2.685,1.224-4.246,1.224c-2.364,0-4.474-1.021-5.962-2.628L52.059,74.862z M72.407,68.057l10.383,17.82
	c0.999-0.438,2.098-0.688,3.262-0.688c4.499,0,8.149,3.649,8.149,8.151c0,0.725-0.125,1.412-0.302,2.08l14.696,4.995
	c0.075-2.535-0.215-5.309-0.804-8.266L73.63,66.852C73.264,67.292,72.857,67.7,72.407,68.057 M15.717,75.995l22.291,2.643
	c0.579-2.866,2.671-5.151,5.395-6.07L36.251,50.86c-0.492,0.094-0.994,0.156-1.514,0.156c-2.003,0-3.812-0.75-5.232-1.95
	C24.242,57.949,19.316,67.249,15.717,75.995 M37.188,50.626l7.133,21.656c0.54-0.113,1.098-0.176,1.671-0.176
	c2.074,0,3.943,0.798,5.381,2.073l9.424-7.71c-0.978-1.344-1.575-2.987-1.575-4.778c0-1.436,0.405-2.767,1.057-3.938l-18.746-10.4
	C40.516,48.895,38.983,50.057,37.188,50.626 M38.008,35.409c2.871,1.262,4.881,4.122,4.881,7.457c0,1.316-0.341,2.543-0.896,3.644
	l18.79,10.424c1.479-2.046,3.87-3.391,6.59-3.391c4.5,0,8.149,3.648,8.149,8.149c0,1.625-0.526,3.1-1.352,4.362l33.312,24.674
	C100.137,58.347,58.968,6.017,58.968,6.017l-0.049,0.805c-0.019-0.022-0.035-0.044-0.045-0.055l-0.051-0.751
	C58.823,6.016,48.903,18.698,38.008,35.409"/>
<g enable-background="new    ">
	<path fill="#FFFFFF" d="M123.718,70.963h6.368l6.496,13.12l6.464-13.12h6.368v22.432h-5.184l-0.032-14.208l-5.728,11.968h-3.776
		l-5.76-11.968v14.208h-5.216V70.963z"/>
	<path fill="#FFFFFF" d="M158.71,68.963c0.565,0.565,0.848,1.296,0.848,2.191c0,0.875-0.283,1.601-0.848,2.176
		c-0.565,0.576-1.286,0.864-2.16,0.864c-0.875,0-1.595-0.288-2.16-0.864c-0.565-0.575-0.848-1.301-0.848-2.176
		c0-0.896,0.282-1.626,0.848-2.191s1.285-0.849,2.16-0.849C157.425,68.115,158.145,68.398,158.71,68.963z M153.766,76.083h5.664
		v17.312h-5.664V76.083z"/>
	<path fill="#FFFFFF" d="M163.942,69.651h5.696v23.744h-5.696V69.651z"/>
	<path fill="#FFFFFF" d="M185.414,92.498c-0.64,0.363-1.376,0.646-2.208,0.849c-0.832,0.202-1.675,0.304-2.528,0.304
		c-1.707,0-3.088-0.49-4.144-1.472s-1.584-2.336-1.584-4.064v-7.424h-2.4v-3.776h2.4v-4.8h5.664v4.8h4.48v3.776h-4.48v6.528
		c0,1.216,0.501,1.824,1.504,1.824c0.619,0,1.354-0.192,2.208-0.576L185.414,92.498z"/>
	<path fill="#FFFFFF" d="M201.03,76.994c1.43,0.736,2.539,1.771,3.328,3.104s1.184,2.875,1.184,4.624
		c0,1.771-0.395,3.323-1.184,4.656s-1.898,2.367-3.328,3.104s-3.083,1.104-4.96,1.104c-1.878,0-3.531-0.368-4.96-1.104
		c-1.43-0.736-2.533-1.771-3.312-3.104c-0.778-1.333-1.168-2.886-1.168-4.656c0-1.749,0.39-3.291,1.168-4.624
		c0.779-1.333,1.883-2.368,3.312-3.104c1.429-0.735,3.082-1.104,4.96-1.104C197.947,75.891,199.6,76.259,201.03,76.994z
		 M193.381,81.683c-0.683,0.789-1.023,1.824-1.023,3.104c0,1.302,0.341,2.348,1.023,3.137c0.684,0.789,1.579,1.184,2.688,1.184
		c1.13,0,2.037-0.395,2.72-1.184s1.024-1.835,1.024-3.137c0-1.279-0.347-2.314-1.04-3.104s-1.596-1.185-2.704-1.185
		C194.96,80.498,194.065,80.894,193.381,81.683z"/>
	<path fill="#FFFFFF" d="M224.438,77.651c1.141,1.195,1.711,2.806,1.711,4.832v10.912h-5.664v-9.28c0-0.98-0.267-1.754-0.799-2.319
		c-0.534-0.565-1.248-0.849-2.145-0.849c-0.939,0.021-1.713,0.331-2.32,0.929c-0.607,0.597-0.965,1.387-1.072,2.367v9.152h-5.695
		V76.083h5.695v2.815c0.619-1.002,1.414-1.76,2.385-2.271c0.971-0.513,2.084-0.769,3.344-0.769
		C221.776,75.859,223.295,76.456,224.438,77.651z"/>
	<path fill="#FFFFFF" d="M258.693,93.395h-7.009l-5.887-8.704l-2.816,3.136v5.568h-5.856V70.963h5.856v9.728l8.416-9.728h6.783
		l-8.319,9.248L258.693,93.395z"/>
	<path fill="#FFFFFF" d="M275.205,78.387c1.515,1.664,2.272,3.947,2.272,6.848c0,0.448-0.012,0.79-0.033,1.024h-12.031
		c0.277,0.981,0.757,1.733,1.439,2.256c0.684,0.522,1.516,0.784,2.496,0.784c0.747,0,1.467-0.149,2.16-0.448
		s1.328-0.736,1.904-1.312l2.977,2.977c-0.896,1.003-1.979,1.766-3.248,2.288c-1.27,0.522-2.705,0.784-4.305,0.784
		c-1.855,0-3.478-0.363-4.863-1.089c-1.388-0.725-2.449-1.748-3.185-3.071c-0.735-1.322-1.104-2.858-1.104-4.608
		c0-1.771,0.373-3.333,1.121-4.688c0.746-1.354,1.802-2.4,3.168-3.137c1.364-0.735,2.943-1.104,4.735-1.104
		C271.524,75.891,273.69,76.723,275.205,78.387z M271.94,83.219c0-1.003-0.293-1.809-0.879-2.416
		c-0.588-0.608-1.36-0.912-2.32-0.912c-0.896,0-1.648,0.299-2.256,0.896c-0.608,0.598-1.008,1.408-1.2,2.433H271.94z"/>
	<path fill="#FFFFFF" d="M286.532,98.691c-1.109,0.778-2.484,1.168-4.127,1.168c-0.961,0-1.856-0.144-2.688-0.432
		s-1.644-0.742-2.432-1.36l2.368-3.936c0.404,0.341,0.789,0.586,1.152,0.735c0.361,0.149,0.746,0.225,1.151,0.225
		c0.938,0,1.632-0.438,2.08-1.312l0.416-0.8l-7.168-16.896h5.856l4.127,11.264l3.68-11.264h5.664l-7.424,19.008
		C288.527,96.712,287.641,97.911,286.532,98.691z"/>
	<path fill="#FFFFFF" d="M314.612,77.651c1.141,1.195,1.713,2.806,1.713,4.832v10.912h-5.664v-9.28c0-0.98-0.268-1.754-0.801-2.319
		s-1.248-0.849-2.144-0.849c-0.938,0.021-1.712,0.331-2.32,0.929c-0.608,0.597-0.966,1.387-1.071,2.367v9.152h-5.697V76.083h5.697
		v2.815c0.618-1.002,1.412-1.76,2.383-2.271c0.971-0.513,2.086-0.769,3.345-0.769C311.951,75.859,313.471,76.456,314.612,77.651z"/>
	<path fill="#FFFFFF" d="M334.308,78.387c1.515,1.664,2.272,3.947,2.272,6.848c0,0.448-0.012,0.79-0.033,1.024h-12.031
		c0.277,0.981,0.757,1.733,1.439,2.256c0.684,0.522,1.516,0.784,2.496,0.784c0.747,0,1.467-0.149,2.16-0.448
		s1.328-0.736,1.904-1.312l2.977,2.977c-0.896,1.003-1.979,1.766-3.248,2.288c-1.27,0.522-2.705,0.784-4.305,0.784
		c-1.855,0-3.478-0.363-4.863-1.089c-1.388-0.725-2.449-1.748-3.185-3.071c-0.735-1.322-1.104-2.858-1.104-4.608
		c0-1.771,0.373-3.333,1.121-4.688c0.746-1.354,1.802-2.4,3.168-3.137c1.364-0.735,2.943-1.104,4.735-1.104
		C330.627,75.891,332.793,76.723,334.308,78.387z M331.043,83.219c0-1.003-0.293-1.809-0.879-2.416
		c-0.588-0.608-1.36-0.912-2.32-0.912c-0.896,0-1.648,0.299-2.256,0.896c-0.608,0.598-1.008,1.408-1.2,2.433H331.043z"/>
	<path fill="#FFFFFF" d="M345.54,79.795c-0.49,0-0.885,0.091-1.184,0.271c-0.299,0.182-0.448,0.454-0.448,0.816
		c0,0.384,0.235,0.693,0.704,0.928c0.469,0.235,1.217,0.491,2.24,0.768c1.236,0.363,2.267,0.721,3.088,1.072
		c0.82,0.353,1.53,0.886,2.128,1.601c0.597,0.715,0.896,1.647,0.896,2.8c0,1.749-0.677,3.12-2.031,4.111
		c-1.355,0.992-3.12,1.488-5.297,1.488c-1.471,0-2.879-0.208-4.223-0.624c-1.345-0.416-2.539-1.029-3.584-1.84l1.791-3.68
		c0.981,0.683,2.011,1.211,3.088,1.584c1.078,0.373,2.096,0.56,3.057,0.56c0.555,0,0.996-0.091,1.328-0.271
		c0.33-0.182,0.496-0.443,0.496-0.784c0-0.427-0.24-0.757-0.721-0.992c-0.48-0.234-1.232-0.49-2.256-0.768
		c-1.216-0.363-2.219-0.721-3.008-1.072c-0.789-0.353-1.478-0.88-2.064-1.584c-0.586-0.704-0.879-1.621-0.879-2.752
		c0-1.749,0.66-3.12,1.983-4.112c1.322-0.992,3.028-1.488,5.12-1.488c1.258,0,2.501,0.171,3.728,0.513
		c1.227,0.341,2.384,0.843,3.472,1.504l-1.92,3.712C348.803,80.382,346.969,79.795,345.54,79.795z"/>
</g>
<text transform="matrix(1 0 0 1 121.5425 121.3948)" fill="#1653EF" font-family="'Montserrat-Regular'" font-size="12"> </text>
<g enable-background="new    ">
	<path fill="#FFFFFF" d="M141.643,108.795h1.8l-4.266,12.6h-1.8l-3.258-10.404l-3.312,10.404h-1.782l-4.248-12.6h1.854l3.33,10.746
		l3.312-10.746H135l3.33,10.746L141.643,108.795z"/>
	<path fill="#FFFFFF" d="M150.067,121.395v-1.332c-0.708,0.936-1.818,1.404-3.33,1.404c-0.66,0-1.239-0.126-1.737-0.378
		s-0.882-0.601-1.152-1.044c-0.27-0.444-0.405-0.942-0.405-1.494c0-0.853,0.315-1.527,0.945-2.025s1.509-0.753,2.637-0.765h3.024
		v-0.45c0-0.672-0.207-1.19-0.621-1.557s-1.017-0.55-1.809-0.55c-0.96,0-1.938,0.343-2.934,1.026l-0.702-1.152
		c0.684-0.443,1.316-0.765,1.899-0.963c0.582-0.197,1.275-0.297,2.079-0.297c1.188,0,2.106,0.291,2.754,0.873
		s0.978,1.396,0.99,2.439l0.018,6.264H150.067z M149.068,119.514c0.546-0.378,0.873-0.879,0.981-1.503v-0.954h-2.79
		c-0.756,0-1.317,0.114-1.683,0.342c-0.366,0.229-0.549,0.588-0.549,1.08s0.186,0.882,0.558,1.17
		c0.372,0.288,0.87,0.432,1.494,0.432C147.859,120.08,148.521,119.892,149.068,119.514z"/>
	<path fill="#FFFFFF" d="M159.822,120.765c-0.732,0.468-1.476,0.702-2.232,0.702s-1.368-0.226-1.836-0.675
		c-0.468-0.45-0.702-1.132-0.702-2.044v-5.273h-1.35v-1.278h1.35v-2.556h1.692v2.556h2.916v1.278h-2.916v4.968
		c0,0.528,0.096,0.906,0.288,1.134c0.192,0.229,0.48,0.343,0.864,0.343c0.456,0,0.948-0.15,1.476-0.45L159.822,120.765z"/>
	<path fill="#FFFFFF" d="M168.894,113.123c0.756,0.871,1.134,2.079,1.134,3.628c0,0.239-0.006,0.42-0.018,0.54h-7.524
		c0.132,0.852,0.489,1.529,1.071,2.033s1.299,0.756,2.151,0.756c0.563,0,1.089-0.102,1.575-0.306s0.909-0.492,1.269-0.864
		l0.918,0.954c-0.468,0.504-1.032,0.895-1.692,1.17c-0.66,0.276-1.392,0.414-2.196,0.414c-0.936,0-1.767-0.2-2.493-0.603
		s-1.29-0.969-1.692-1.701c-0.402-0.731-0.603-1.566-0.603-2.502c0-0.937,0.201-1.767,0.603-2.493
		c0.402-0.726,0.963-1.296,1.683-1.71c0.72-0.414,1.542-0.621,2.466-0.621C167.022,111.819,168.138,112.254,168.894,113.123z
		 M168.516,115.994c-0.048-0.863-0.336-1.545-0.864-2.043c-0.528-0.497-1.224-0.747-2.088-0.747c-0.84,0-1.539,0.252-2.097,0.757
		c-0.558,0.504-0.891,1.182-0.999,2.033H168.516z"/>
	<path fill="#FFFFFF" d="M175.32,112.367c0.576-0.354,1.26-0.536,2.052-0.549v1.62c-0.972-0.036-1.758,0.216-2.358,0.756
		s-0.942,1.267-1.026,2.178v5.022h-1.674v-9.522h1.674v2.053C174.3,113.24,174.744,112.722,175.32,112.367z"/>
	<path fill="#FFFFFF" d="M191.52,110.64c-0.637-0.282-1.29-0.423-1.962-0.423c-0.888,0-1.704,0.216-2.448,0.647
		c-0.744,0.433-1.332,1.018-1.764,1.755c-0.432,0.738-0.648,1.552-0.648,2.439c0,0.876,0.217,1.686,0.648,2.43
		s1.02,1.332,1.764,1.765c0.744,0.432,1.561,0.647,2.448,0.647c0.659,0,1.308-0.135,1.944-0.405c0.636-0.27,1.199-0.639,1.691-1.106
		l1.045,1.134c-0.637,0.624-1.375,1.113-2.215,1.467c-0.84,0.354-1.691,0.531-2.556,0.531c-1.2,0-2.298-0.285-3.294-0.854
		c-0.996-0.57-1.782-1.348-2.358-2.331c-0.575-0.984-0.864-2.07-0.864-3.259c0-1.176,0.291-2.253,0.873-3.23
		c0.582-0.979,1.377-1.749,2.385-2.313c1.009-0.563,2.118-0.846,3.33-0.846c0.877,0,1.726,0.165,2.547,0.495
		c0.822,0.33,1.533,0.795,2.134,1.395l-1.026,1.242C192.713,111.315,192.156,110.922,191.52,110.64z"/>
	<path fill="#FFFFFF" d="M202.689,112.431c0.738,0.408,1.313,0.975,1.728,1.701c0.414,0.726,0.621,1.557,0.621,2.493
		c0,0.936-0.207,1.77-0.621,2.502c-0.414,0.731-0.989,1.302-1.728,1.71c-0.737,0.407-1.581,0.611-2.528,0.611
		c-0.961,0-1.81-0.204-2.548-0.611c-0.737-0.408-1.313-0.976-1.728-1.701c-0.414-0.727-0.621-1.563-0.621-2.511
		c0-0.937,0.207-1.768,0.621-2.493c0.414-0.727,0.99-1.293,1.728-1.701c0.738-0.408,1.587-0.612,2.548-0.612
		C201.108,111.819,201.952,112.023,202.689,112.431z M198.495,113.709c-0.486,0.287-0.863,0.687-1.134,1.196
		c-0.271,0.511-0.405,1.089-0.405,1.737c0,0.66,0.135,1.248,0.405,1.764c0.271,0.517,0.647,0.915,1.134,1.197
		s1.041,0.423,1.666,0.423c0.611,0,1.16-0.141,1.646-0.423s0.863-0.681,1.134-1.197c0.271-0.516,0.405-1.104,0.405-1.764
		c0-0.648-0.135-1.227-0.405-1.737c-0.271-0.51-0.647-0.909-1.134-1.196c-0.486-0.288-1.035-0.433-1.646-0.433
		C199.536,113.277,198.981,113.421,198.495,113.709z"/>
	<path fill="#FFFFFF" d="M222.246,112.809c0.624,0.66,0.937,1.56,0.937,2.7v5.886h-1.692v-5.436c0-0.805-0.22-1.435-0.657-1.891
		s-1.041-0.684-1.809-0.684c-0.9,0.024-1.608,0.342-2.124,0.954c-0.517,0.611-0.774,1.397-0.774,2.357v4.698h-1.691v-5.436
		c0-0.805-0.217-1.435-0.648-1.891s-1.038-0.684-1.818-0.684c-0.899,0.024-1.61,0.342-2.133,0.954
		c-0.521,0.611-0.783,1.397-0.783,2.357v4.698h-1.674v-9.522h1.674v1.998c0.625-1.344,1.807-2.027,3.547-2.052
		c0.875,0,1.604,0.21,2.187,0.63c0.582,0.421,0.976,1.008,1.179,1.765c0.588-1.572,1.824-2.37,3.709-2.395
		C220.764,111.819,221.622,112.149,222.246,112.809z"/>
	<path fill="#FFFFFF" d="M241.038,112.809c0.624,0.66,0.936,1.56,0.936,2.7v5.886h-1.691v-5.436c0-0.805-0.219-1.435-0.657-1.891
		s-1.041-0.684-1.809-0.684c-0.9,0.024-1.608,0.342-2.124,0.954c-0.516,0.611-0.773,1.397-0.773,2.357v4.698h-1.693v-5.436
		c0-0.805-0.215-1.435-0.647-1.891s-1.038-0.684-1.817-0.684c-0.9,0.024-1.611,0.342-2.133,0.954
		c-0.522,0.611-0.783,1.397-0.783,2.357v4.698h-1.674v-9.522h1.674v1.998c0.623-1.344,1.805-2.027,3.545-2.052
		c0.877,0,1.605,0.21,2.188,0.63c0.582,0.421,0.975,1.008,1.18,1.765c0.588-1.572,1.823-2.37,3.707-2.395
		C239.555,111.819,240.414,112.149,241.038,112.809z"/>
	<path fill="#FFFFFF" d="M253.385,111.872v9.522h-1.691v-2.016c-0.625,1.355-1.801,2.046-3.529,2.069
		c-1.104,0-1.967-0.326-2.592-0.98c-0.623-0.654-0.936-1.558-0.936-2.709v-5.887h1.691v5.437c0,0.804,0.219,1.431,0.658,1.881
		c0.438,0.45,1.041,0.675,1.809,0.675c0.888-0.012,1.593-0.326,2.115-0.944c0.521-0.618,0.783-1.407,0.783-2.367v-4.681H253.385z"/>
	<path fill="#FFFFFF" d="M264.563,112.8c0.637,0.654,0.955,1.557,0.955,2.709v5.886h-1.675v-5.436c0-0.805-0.226-1.432-0.675-1.882
		c-0.45-0.449-1.071-0.675-1.863-0.675c-0.852,0.013-1.545,0.285-2.078,0.819c-0.535,0.534-0.838,1.227-0.91,2.079v5.094h-1.674
		v-9.522h1.674v2.017c0.637-1.356,1.842-2.046,3.619-2.07C263.051,111.819,263.927,112.146,264.563,112.8z"/>
	<path fill="#FFFFFF" d="M270.081,108.381c0.197,0.204,0.297,0.462,0.297,0.773c0,0.312-0.1,0.57-0.297,0.774
		c-0.198,0.204-0.447,0.306-0.748,0.306c-0.299,0-0.549-0.102-0.746-0.306c-0.198-0.204-0.297-0.462-0.297-0.774
		c0-0.312,0.099-0.569,0.297-0.773c0.197-0.204,0.447-0.307,0.746-0.307C269.633,108.074,269.882,108.177,270.081,108.381z
		 M268.505,111.872h1.674v9.522h-1.674V111.872z"/>
	<path fill="#FFFFFF" d="M278.549,120.765c-0.732,0.468-1.477,0.702-2.232,0.702s-1.368-0.226-1.836-0.675
		c-0.469-0.45-0.702-1.132-0.702-2.044v-5.273h-1.351v-1.278h1.351v-2.556h1.692v2.556h2.916v1.278h-2.916v4.968
		c0,0.528,0.096,0.906,0.287,1.134c0.192,0.229,0.48,0.343,0.865,0.343c0.455,0,0.947-0.15,1.475-0.45L278.549,120.765z"/>
	<path fill="#FFFFFF" d="M282.715,124.401c-0.498,0.372-1.082,0.559-1.754,0.559c-0.408,0-0.781-0.061-1.117-0.181
		s-0.66-0.306-0.971-0.558l0.719-1.314c0.42,0.3,0.847,0.45,1.278,0.45c0.72,0,1.261-0.408,1.62-1.224l0.359-0.847l-3.941-9.414
		h1.764l3.024,7.633l2.862-7.633h1.71l-4.356,10.872C283.613,123.477,283.213,124.029,282.715,124.401z"/>
</g>
</svg>
