<?xml version="1.0" encoding="utf-8"?>
<!-- Generator: Adobe Illustrator 16.0.0, SVG Export Plug-In . SVG Version: 6.00 Build 0)  -->
<!DOCTYPE svg PUBLIC "-//W3C//DTD SVG 1.1//EN" "http://www.w3.org/Graphics/SVG/1.1/DTD/svg11.dtd">
<svg version="1.1" id="Layer_1" xmlns="http://www.w3.org/2000/svg" xmlns:xlink="http://www.w3.org/1999/xlink" x="0px" y="0px"
	 width="360.508px" height="150.805px" viewBox="0 0 360.508 150.805" enable-background="new 0 0 360.508 150.805"
	 xml:space="preserve">
<path fill="#FDFDFE" d="M99.506,116.234c0.872-2.171,1.59-4.374,2.035-6.622c0.03-0.129,0.053-0.261,0.081-0.394
	c0.098-0.52,0.16-1.041,0.235-1.562l-9.847-0.776L99.506,116.234z M94.071,125.819c2.086-2.708,3.74-5.583,5.032-8.552
	l-8.411-10.488l-22.53-1.772L94.071,125.819z M26.894,105.667l59.594,27.812c0.123-0.098,0.256-0.178,0.378-0.274
	c2.526-2.049,4.7-4.286,6.601-6.641l-27.009-21.695l-38.554-3.035C27.9,103.229,27.517,104.522,26.894,105.667 M85.682,98.99
	l5.501,6.857L102,106.702c0.005-0.062,0.02-0.117,0.026-0.176c0.218-1.695,0.34-3.396,0.328-5.102L87.387,96.34
	C86.992,97.337,86.412,98.234,85.682,98.99 M4.413,92.224c-0.696,3.546-0.98,6.85-0.717,9.783c0.003,0.025,0.01,0.048,0.012,0.075
	C3.5,112.709,7.941,123.401,17.161,131.71c18.326,16.521,48.611,17.46,68.442,2.421l-59.2-27.63
	c-1.476,2.084-3.895,3.455-6.645,3.455c-4.5-0.001-8.15-3.649-8.15-8.15c0-1.912,0.687-3.646,1.791-5.039l-8.292-7.735
	C4.844,90.111,4.602,91.185,4.413,92.224 M25.168,95.752c1.444,1.294,2.407,3.08,2.644,5.105l37.312,2.938L44.27,87.044
	c-1.29,0.855-2.835,1.36-4.502,1.36c-1.918,0-3.66-0.688-5.053-1.802L25.168,95.752z M45.037,86.427l21.792,17.506l23.036,1.813
	l-4.908-6.121c-1.404,1.146-3.174,1.865-5.13,1.865c-4.502,0-8.151-3.65-8.151-8.149c0-0.662,0.099-1.297,0.249-1.912L47.382,83.09
	C46.895,84.398,46.082,85.535,45.037,86.427 M5.38,87.966l8.634,8.062c1.474-1.465,3.502-2.368,5.743-2.368
	c1.737,0,3.341,0.553,4.664,1.479l9.552-9.15c-1.456-1.475-2.356-3.49-2.355-5.728c-0.001-0.227,0.048-0.439,0.065-0.661
	l-22.589-2.68C7.552,80.749,6.296,84.452,5.38,87.966 M45.833,74.863c1.282,1.438,2.084,3.315,2.084,5.396
	c0,0.662-0.1,1.297-0.249,1.912l24.542,8.34c0.658-1.768,1.904-3.229,3.509-4.172l-10.324-17.72
	c-1.239,0.762-2.685,1.224-4.246,1.224c-2.364,0-4.474-1.021-5.962-2.628L45.833,74.863z M66.182,68.057l10.383,17.82
	c0.999-0.438,2.098-0.688,3.262-0.688c4.499,0,8.149,3.648,8.149,8.15c0,0.726-0.125,1.412-0.302,2.08l14.696,4.995
	c0.075-2.535-0.215-5.31-0.804-8.267L67.404,66.852C67.039,67.292,66.631,67.7,66.182,68.057 M9.491,75.995l22.291,2.643
	c0.579-2.865,2.671-5.15,5.395-6.069l-7.152-21.708c-0.492,0.095-0.994,0.155-1.514,0.155c-2.003,0-3.812-0.75-5.232-1.949
	C18.017,57.949,13.09,67.249,9.491,75.995 M30.962,50.626l7.133,21.656c0.54-0.113,1.098-0.177,1.671-0.177
	c2.074,0,3.943,0.798,5.381,2.072l9.424-7.71c-0.978-1.344-1.575-2.986-1.575-4.777c0-1.437,0.405-2.768,1.057-3.938L35.308,47.354
	C34.291,48.895,32.757,50.057,30.962,50.626 M31.782,35.409c2.871,1.262,4.881,4.122,4.881,7.457c0,1.314-0.341,2.543-0.896,3.644
	l18.79,10.424c1.479-2.046,3.87-3.391,6.59-3.391c4.5,0,8.149,3.647,8.149,8.148c0,1.625-0.526,3.101-1.352,4.361l33.312,24.675
	C93.912,58.346,52.742,6.016,52.742,6.016l-0.049,0.805c-0.019-0.021-0.035-0.044-0.045-0.055l-0.051-0.751
	C52.598,6.016,42.677,18.698,31.782,35.409"/>
<g enable-background="new    ">
	<path fill="#FFFFFF" d="M143.832,59.532c2.121,1.849,3.182,4.45,3.182,7.804c0,3.556-1.061,6.314-3.182,8.278
		c-2.122,1.964-5.103,2.945-8.944,2.945h-5.375v8.342h-7.869V56.759h13.244C138.729,56.759,141.71,57.683,143.832,59.532z
		 M138.221,71.077c0.874-0.802,1.312-1.963,1.312-3.482c0-1.462-0.438-2.587-1.312-3.376c-0.875-0.788-2.114-1.183-3.72-1.183
		h-4.988v9.245h4.988C136.106,72.281,137.346,71.88,138.221,71.077z"/>
	<path fill="#FFFFFF" d="M168.342,64.865c1.92,0.988,3.411,2.379,4.472,4.171c1.06,1.792,1.591,3.863,1.591,6.213
		c0,2.38-0.531,4.466-1.591,6.257c-1.061,1.792-2.552,3.182-4.472,4.171c-1.921,0.989-4.143,1.483-6.665,1.483
		s-4.745-0.494-6.665-1.483s-3.404-2.379-4.45-4.171c-1.047-1.791-1.569-3.877-1.569-6.257c0-2.35,0.522-4.421,1.569-6.213
		c1.046-1.792,2.53-3.183,4.45-4.171c1.92-0.989,4.143-1.484,6.665-1.484S166.421,63.875,168.342,64.865z M158.065,71.163
		c-0.918,1.062-1.376,2.451-1.376,4.171c0,1.749,0.458,3.154,1.376,4.215c0.917,1.061,2.121,1.591,3.612,1.591
		c1.52,0,2.737-0.53,3.655-1.591c0.917-1.061,1.376-2.466,1.376-4.215c0-1.72-0.466-3.109-1.397-4.171
		c-0.932-1.06-2.144-1.591-3.634-1.591C160.186,69.573,158.982,70.104,158.065,71.163z"/>
	<path fill="#FFFFFF" d="M174.447,63.639h7.783l4.644,15.737l4.558-15.737h7.311l4.602,15.737l4.644-15.737h7.481l-8.514,23.263
		h-7.568l-4.429-14.362l-4.472,14.362h-7.568L174.447,63.639z"/>
	<path fill="#FFFFFF" d="M236.281,66.735c2.035,2.236,3.053,5.304,3.053,9.202c0,0.602-0.015,1.061-0.043,1.376h-16.168
		c0.372,1.318,1.018,2.329,1.936,3.031c0.916,0.703,2.035,1.054,3.354,1.054c1.003,0,1.971-0.2,2.902-0.603
		c0.932-0.4,1.785-0.988,2.559-1.763l3.999,3.999c-1.204,1.348-2.659,2.372-4.364,3.074c-1.706,0.703-3.634,1.054-5.783,1.054
		c-2.494,0-4.674-0.487-6.537-1.462c-1.863-0.974-3.289-2.351-4.277-4.128c-0.99-1.777-1.484-3.841-1.484-6.192
		c0-2.379,0.502-4.479,1.506-6.299c1.002-1.82,2.422-3.226,4.256-4.214c1.835-0.989,3.957-1.484,6.365-1.484
		C231.336,63.38,234.245,64.498,236.281,66.735z M231.895,73.228c0-1.348-0.395-2.43-1.182-3.247
		c-0.789-0.816-1.828-1.226-3.117-1.226c-1.205,0-2.215,0.402-3.032,1.204c-0.817,0.804-1.354,1.893-1.612,3.269H231.895z"/>
	<path fill="#FFFFFF" d="M254.019,64.412c1.275-0.716,2.73-1.075,4.364-1.075v7.01c-0.258-0.028-0.645-0.043-1.16-0.043
		c-1.807,0-3.269,0.423-4.387,1.269c-1.117,0.846-1.763,1.999-1.935,3.461v11.868h-7.654V63.639h7.654v3.87
		C251.703,66.161,252.742,65.129,254.019,64.412z"/>
	<path fill="#FFFFFF" d="M289.6,64.047c-1.348-0.731-2.681-1.097-3.998-1.097c-1.521,0-2.903,0.381-4.15,1.14
		c-1.246,0.76-2.229,1.806-2.945,3.139s-1.074,2.816-1.074,4.451c0,1.634,0.357,3.117,1.074,4.45s1.699,2.38,2.945,3.139
		c1.247,0.76,2.63,1.14,4.15,1.14c1.231,0,2.521-0.315,3.869-0.946c1.348-0.63,2.551-1.49,3.612-2.579l4.601,4.944
		c-1.634,1.721-3.576,3.09-5.826,4.106c-2.251,1.018-4.479,1.526-6.687,1.526c-2.981,0-5.676-0.688-8.084-2.063
		s-4.3-3.253-5.676-5.633s-2.064-5.046-2.064-7.998c0-2.924,0.702-5.562,2.107-7.912c1.403-2.351,3.333-4.199,5.783-5.547
		c2.451-1.348,5.196-2.021,8.234-2.021c2.236,0,4.443,0.467,6.622,1.397c2.178,0.933,4.027,2.2,5.547,3.806l-4.558,5.504
		C292.107,65.76,290.947,64.779,289.6,64.047z"/>
	<path fill="#FFFFFF" d="M307.681,54.072c0.759,0.76,1.14,1.741,1.14,2.945c0,1.176-0.381,2.149-1.14,2.924
		c-0.76,0.774-1.728,1.161-2.902,1.161c-1.176,0-2.144-0.387-2.902-1.161c-0.761-0.774-1.14-1.748-1.14-2.924
		c0-1.204,0.379-2.186,1.14-2.945c0.759-0.76,1.727-1.14,2.902-1.14C305.953,52.932,306.921,53.312,307.681,54.072z M301.037,63.639
		h7.611v23.263h-7.611V63.639z"/>
	<path fill="#FFFFFF" d="M329.632,85.698c-0.86,0.488-1.849,0.867-2.968,1.14c-1.117,0.272-2.25,0.408-3.396,0.408
		c-2.293,0-4.149-0.659-5.568-1.978s-2.129-3.14-2.129-5.461V69.83h-3.225v-5.073h3.225v-6.45h7.611v6.45h6.02v5.073h-6.02v8.772
		c0,1.634,0.674,2.451,2.021,2.451c0.83,0,1.82-0.259,2.967-0.774L329.632,85.698z"/>
	<path fill="#FFFFFF" d="M342.273,94.018c-1.49,1.047-3.34,1.569-5.547,1.569c-1.289,0-2.494-0.193-3.611-0.58
		c-1.119-0.387-2.208-0.996-3.269-1.827l3.183-5.289c0.544,0.458,1.06,0.788,1.547,0.988c0.488,0.2,1.004,0.302,1.549,0.302
		c1.261,0,2.193-0.588,2.795-1.764l0.559-1.074l-9.632-22.704h7.869l5.547,15.136l4.945-15.136h7.61l-9.976,25.542
		C344.954,91.359,343.764,92.971,342.273,94.018z"/>
</g>
<g enable-background="new    ">
	<path fill="#FFFFFF" d="M138.82,102.302h1.8l-4.266,12.6h-1.8l-3.258-10.404l-3.312,10.404h-1.782l-4.248-12.6h1.854l3.33,10.746
		l3.312-10.746h1.728l3.33,10.746L138.82,102.302z"/>
	<path fill="#FFFFFF" d="M147.245,114.902v-1.332c-0.708,0.936-1.818,1.404-3.33,1.404c-0.66,0-1.239-0.126-1.737-0.378
		s-0.882-0.601-1.152-1.044c-0.27-0.444-0.405-0.942-0.405-1.494c0-0.853,0.315-1.527,0.945-2.025s1.509-0.753,2.637-0.765h3.024
		v-0.45c0-0.672-0.207-1.19-0.621-1.557s-1.017-0.55-1.809-0.55c-0.96,0-1.938,0.343-2.934,1.026l-0.702-1.152
		c0.684-0.443,1.316-0.765,1.899-0.963c0.582-0.197,1.275-0.297,2.079-0.297c1.188,0,2.106,0.291,2.754,0.873
		s0.978,1.396,0.99,2.439l0.018,6.264H147.245z M146.246,113.021c0.546-0.378,0.873-0.879,0.981-1.503v-0.954h-2.79
		c-0.756,0-1.317,0.114-1.683,0.342c-0.366,0.229-0.549,0.588-0.549,1.08s0.186,0.882,0.558,1.17
		c0.372,0.288,0.87,0.432,1.494,0.432C145.037,113.587,145.699,113.399,146.246,113.021z"/>
	<path fill="#FFFFFF" d="M157,114.272c-0.732,0.468-1.476,0.702-2.232,0.702s-1.368-0.226-1.836-0.675
		c-0.468-0.45-0.702-1.132-0.702-2.044v-5.273h-1.35v-1.278h1.35v-2.556h1.692v2.556h2.916v1.278h-2.916v4.968
		c0,0.528,0.096,0.906,0.288,1.134c0.192,0.229,0.48,0.343,0.864,0.343c0.456,0,0.948-0.15,1.476-0.45L157,114.272z"/>
	<path fill="#FFFFFF" d="M166.072,106.63c0.756,0.871,1.134,2.079,1.134,3.628c0,0.239-0.006,0.42-0.018,0.54h-7.524
		c0.132,0.852,0.489,1.529,1.071,2.033s1.299,0.756,2.151,0.756c0.563,0,1.089-0.102,1.575-0.306s0.909-0.492,1.269-0.864
		l0.918,0.954c-0.468,0.504-1.032,0.895-1.692,1.17c-0.66,0.276-1.392,0.414-2.196,0.414c-0.936,0-1.767-0.2-2.493-0.603
		s-1.29-0.969-1.692-1.701c-0.402-0.731-0.603-1.566-0.603-2.502c0-0.937,0.201-1.767,0.603-2.493
		c0.402-0.726,0.963-1.296,1.683-1.71c0.72-0.414,1.542-0.621,2.466-0.621C164.2,105.325,165.316,105.761,166.072,106.63z
		 M165.694,109.501c-0.048-0.863-0.336-1.545-0.864-2.043c-0.528-0.497-1.224-0.747-2.088-0.747c-0.84,0-1.539,0.252-2.097,0.757
		c-0.558,0.504-0.891,1.182-0.999,2.033H165.694z"/>
	<path fill="#FFFFFF" d="M172.498,105.874c0.576-0.354,1.26-0.536,2.052-0.549v1.62c-0.972-0.036-1.758,0.216-2.358,0.756
		s-0.942,1.267-1.026,2.178v5.022h-1.674v-9.522h1.674v2.053C171.478,106.747,171.922,106.229,172.498,105.874z"/>
	<path fill="#FFFFFF" d="M188.697,104.147c-0.636-0.282-1.289-0.423-1.961-0.423c-0.889,0-1.705,0.216-2.449,0.647
		c-0.744,0.433-1.332,1.018-1.764,1.755c-0.432,0.738-0.647,1.552-0.647,2.439c0,0.876,0.216,1.686,0.647,2.43
		s1.02,1.332,1.764,1.765c0.744,0.432,1.561,0.647,2.449,0.647c0.659,0,1.307-0.135,1.943-0.405c0.637-0.27,1.199-0.639,1.691-1.106
		l1.045,1.134c-0.637,0.624-1.375,1.113-2.215,1.467c-0.84,0.354-1.691,0.531-2.555,0.531c-1.201,0-2.299-0.285-3.295-0.854
		c-0.996-0.57-1.781-1.348-2.357-2.331c-0.576-0.984-0.864-2.07-0.864-3.259c0-1.176,0.291-2.253,0.873-3.23
		c0.581-0.979,1.377-1.749,2.385-2.313c1.009-0.563,2.118-0.846,3.33-0.846c0.876,0,1.726,0.165,2.547,0.495
		s1.533,0.795,2.134,1.395l-1.027,1.242C189.892,104.822,189.334,104.429,188.697,104.147z"/>
	<path fill="#FFFFFF" d="M199.867,105.938c0.738,0.408,1.313,0.975,1.728,1.701c0.414,0.726,0.621,1.557,0.621,2.493
		c0,0.936-0.207,1.77-0.621,2.502c-0.414,0.731-0.989,1.302-1.728,1.71c-0.738,0.407-1.582,0.611-2.529,0.611
		c-0.961,0-1.809-0.204-2.547-0.611c-0.738-0.408-1.314-0.976-1.729-1.701c-0.414-0.727-0.621-1.563-0.621-2.511
		c0-0.937,0.207-1.768,0.621-2.493c0.414-0.727,0.99-1.293,1.729-1.701s1.586-0.612,2.547-0.612
		C198.285,105.325,199.129,105.53,199.867,105.938z M195.673,107.216c-0.486,0.287-0.864,0.687-1.134,1.196
		c-0.271,0.511-0.405,1.089-0.405,1.737c0,0.66,0.135,1.248,0.405,1.764c0.27,0.517,0.647,0.915,1.134,1.197
		c0.485,0.282,1.041,0.423,1.665,0.423c0.611,0,1.16-0.141,1.646-0.423s0.864-0.681,1.135-1.197c0.27-0.516,0.404-1.104,0.404-1.764
		c0-0.648-0.135-1.227-0.404-1.737c-0.271-0.51-0.648-0.909-1.135-1.196c-0.486-0.288-1.035-0.433-1.646-0.433
		C196.714,106.783,196.158,106.928,195.673,107.216z"/>
	<path fill="#FFFFFF" d="M219.424,106.316c0.623,0.66,0.936,1.56,0.936,2.7v5.886h-1.691v-5.436c0-0.805-0.22-1.435-0.658-1.891
		c-0.438-0.456-1.041-0.684-1.809-0.684c-0.9,0.024-1.607,0.342-2.123,0.954c-0.517,0.611-0.774,1.397-0.774,2.357v4.698h-1.692
		v-5.436c0-0.805-0.216-1.435-0.648-1.891c-0.432-0.456-1.037-0.684-1.817-0.684c-0.899,0.024-1.61,0.342-2.133,0.954
		c-0.522,0.611-0.783,1.397-0.783,2.357v4.698h-1.674v-9.522h1.674v1.998c0.624-1.344,1.806-2.027,3.546-2.052
		c0.876,0,1.605,0.21,2.188,0.63c0.582,0.421,0.975,1.008,1.179,1.765c0.588-1.572,1.823-2.37,3.708-2.395
		C217.941,105.325,218.799,105.656,219.424,106.316z"/>
	<path fill="#FFFFFF" d="M238.215,106.316c0.625,0.66,0.937,1.56,0.937,2.7v5.886h-1.692v-5.436c0-0.805-0.219-1.435-0.656-1.891
		c-0.438-0.456-1.041-0.684-1.809-0.684c-0.9,0.024-1.609,0.342-2.125,0.954c-0.516,0.611-0.773,1.397-0.773,2.357v4.698h-1.692
		v-5.436c0-0.805-0.216-1.435-0.647-1.891c-0.433-0.456-1.039-0.684-1.818-0.684c-0.9,0.024-1.611,0.342-2.133,0.954
		c-0.521,0.611-0.783,1.397-0.783,2.357v4.698h-1.674v-9.522h1.674v1.998c0.624-1.344,1.806-2.027,3.546-2.052
		c0.876,0,1.604,0.21,2.187,0.63c0.582,0.421,0.976,1.008,1.18,1.765c0.588-1.572,1.824-2.37,3.708-2.395
		C236.733,105.325,237.592,105.656,238.215,106.316z"/>
	<path fill="#FFFFFF" d="M250.562,105.379v9.522h-1.691v-2.016c-0.624,1.355-1.801,2.046-3.528,2.069
		c-1.104,0-1.968-0.326-2.592-0.98s-0.937-1.558-0.937-2.709v-5.887h1.692v5.437c0,0.804,0.219,1.431,0.657,1.881
		c0.438,0.45,1.041,0.675,1.809,0.675c0.889-0.012,1.594-0.326,2.115-0.944s0.783-1.407,0.783-2.367v-4.681H250.562z"/>
	<path fill="#FFFFFF" d="M261.741,106.307c0.636,0.654,0.954,1.557,0.954,2.709v5.886h-1.674v-5.436
		c0-0.805-0.226-1.432-0.676-1.882c-0.449-0.449-1.07-0.675-1.863-0.675c-0.852,0.013-1.545,0.285-2.078,0.819
		c-0.534,0.534-0.838,1.227-0.909,2.079v5.094h-1.674v-9.522h1.674v2.017c0.636-1.356,1.842-2.046,3.618-2.07
		C260.229,105.325,261.105,105.653,261.741,106.307z"/>
	<path fill="#FFFFFF" d="M267.258,101.888c0.198,0.204,0.297,0.462,0.297,0.773c0,0.312-0.099,0.57-0.297,0.774
		c-0.197,0.204-0.447,0.306-0.747,0.306s-0.549-0.102-0.747-0.306c-0.197-0.204-0.297-0.462-0.297-0.774
		c0-0.312,0.1-0.569,0.297-0.773c0.198-0.204,0.447-0.307,0.747-0.307S267.061,101.684,267.258,101.888z M265.684,105.379h1.674
		v9.522h-1.674V105.379z"/>
	<path fill="#FFFFFF" d="M275.727,114.272c-0.732,0.468-1.477,0.702-2.232,0.702s-1.367-0.226-1.836-0.675
		c-0.468-0.45-0.701-1.132-0.701-2.044v-5.273h-1.351v-1.278h1.351v-2.556h1.691v2.556h2.916v1.278h-2.916v4.968
		c0,0.528,0.096,0.906,0.288,1.134c0.192,0.229,0.479,0.343,0.864,0.343c0.455,0,0.947-0.15,1.476-0.45L275.727,114.272z"/>
	<path fill="#FFFFFF" d="M279.894,117.907c-0.498,0.372-1.083,0.559-1.755,0.559c-0.408,0-0.78-0.061-1.116-0.181
		s-0.66-0.306-0.972-0.558l0.72-1.314c0.42,0.3,0.847,0.45,1.278,0.45c0.72,0,1.26-0.408,1.619-1.224l0.36-0.847l-3.942-9.414h1.765
		l3.024,7.633l2.861-7.633h1.711l-4.357,10.872C280.791,116.984,280.392,117.535,279.894,117.907z"/>
</g>
</svg>
