<?xml version="1.0" encoding="utf-8"?>
<!-- Generator: Adobe Illustrator 16.0.0, SVG Export Plug-In . SVG Version: 6.00 Build 0)  -->
<!DOCTYPE svg PUBLIC "-//W3C//DTD SVG 1.1//EN" "http://www.w3.org/Graphics/SVG/1.1/DTD/svg11.dtd">
<svg version="1.1" id="Layer_1" xmlns="http://www.w3.org/2000/svg" xmlns:xlink="http://www.w3.org/1999/xlink" x="0px" y="0px"
	 width="360.508px" height="150.805px" viewBox="0 0 360.508 150.805" enable-background="new 0 0 360.508 150.805"
	 xml:space="preserve">
<path fill="#FDFDFE" d="M105.732,116.233c0.872-2.171,1.59-4.374,2.035-6.622c0.03-0.129,0.053-0.26,0.081-0.393
	c0.098-0.52,0.16-1.041,0.235-1.562l-9.847-0.776L105.732,116.233z M100.297,125.818c2.086-2.708,3.74-5.583,5.032-8.551
	l-8.411-10.489l-22.53-1.773L100.297,125.818z M33.119,105.667l59.594,27.813c0.123-0.097,0.256-0.177,0.378-0.275
	c2.526-2.049,4.7-4.286,6.601-6.64l-27.009-21.696l-38.554-3.035C34.126,103.229,33.742,104.521,33.119,105.667 M91.907,98.99
	l5.501,6.859l10.817,0.853c0.005-0.06,0.02-0.117,0.026-0.175c0.218-1.696,0.34-3.396,0.328-5.101l-14.966-5.086
	C93.218,97.337,92.637,98.233,91.907,98.99 M10.638,92.224c-0.696,3.546-0.98,6.848-0.717,9.783c0.003,0.025,0.01,0.048,0.012,0.075
	c-0.208,10.627,4.234,21.318,13.453,29.628c18.326,16.52,48.611,17.46,68.442,2.421l-59.2-27.63
	c-1.476,2.084-3.895,3.455-6.645,3.455c-4.5-0.001-8.15-3.649-8.15-8.15c0-1.912,0.687-3.646,1.791-5.039l-8.292-7.737
	C11.07,90.11,10.827,91.185,10.638,92.224 M31.394,95.752c1.444,1.294,2.407,3.08,2.644,5.106l37.312,2.938L50.495,87.045
	c-1.29,0.856-2.835,1.361-4.502,1.361c-1.918,0-3.66-0.689-5.053-1.801L31.394,95.752z M51.262,86.427l21.792,17.506l23.036,1.813
	l-4.908-6.121c-1.404,1.147-3.174,1.865-5.13,1.865c-4.502,0-8.151-3.65-8.151-8.149c0-0.662,0.099-1.297,0.249-1.912L53.608,83.09
	C53.12,84.397,52.307,85.535,51.262,86.427 M11.606,87.966l8.634,8.061c1.474-1.465,3.502-2.369,5.743-2.369
	c1.737,0,3.341,0.553,4.664,1.479l9.552-9.151c-1.456-1.474-2.356-3.491-2.355-5.727c-0.001-0.227,0.048-0.44,0.065-0.661
	l-22.589-2.68C13.778,80.749,12.522,84.452,11.606,87.966 M52.059,74.862c1.282,1.439,2.084,3.316,2.084,5.396
	c0,0.662-0.1,1.297-0.249,1.912l24.542,8.34c0.658-1.768,1.904-3.229,3.509-4.172L71.62,68.619
	c-1.239,0.762-2.685,1.224-4.246,1.224c-2.364,0-4.474-1.021-5.962-2.628L52.059,74.862z M72.407,68.057l10.383,17.82
	c0.999-0.438,2.098-0.688,3.262-0.688c4.499,0,8.149,3.649,8.149,8.151c0,0.725-0.125,1.412-0.302,2.08l14.696,4.995
	c0.075-2.535-0.215-5.309-0.804-8.266L73.63,66.852C73.264,67.292,72.857,67.7,72.407,68.057 M15.717,75.995l22.291,2.643
	c0.579-2.866,2.671-5.151,5.395-6.07L36.251,50.86c-0.492,0.094-0.994,0.156-1.514,0.156c-2.003,0-3.812-0.75-5.232-1.95
	C24.242,57.949,19.316,67.249,15.717,75.995 M37.188,50.626l7.133,21.656c0.54-0.113,1.098-0.176,1.671-0.176
	c2.074,0,3.943,0.798,5.381,2.073l9.424-7.71c-0.978-1.344-1.575-2.987-1.575-4.778c0-1.436,0.405-2.767,1.057-3.938l-18.746-10.4
	C40.516,48.895,38.983,50.057,37.188,50.626 M38.008,35.409c2.871,1.262,4.881,4.122,4.881,7.457c0,1.316-0.341,2.543-0.896,3.644
	l18.79,10.424c1.479-2.046,3.87-3.391,6.59-3.391c4.5,0,8.149,3.648,8.149,8.149c0,1.625-0.526,3.1-1.352,4.362l33.312,24.674
	C100.137,58.347,58.968,6.017,58.968,6.017l-0.049,0.805c-0.019-0.022-0.035-0.044-0.045-0.055l-0.051-0.751
	C58.823,6.016,48.903,18.698,38.008,35.409"/>
<g enable-background="new    ">
	<path fill="#FFFFFF" d="M142.254,67.282c-2.032-0.672-3.736-1.008-5.112-1.008c-1.088,0-1.944,0.2-2.568,0.601
		c-0.624,0.4-0.936,0.983-0.936,1.752c0,0.736,0.271,1.352,0.816,1.848c0.543,0.496,1.216,0.896,2.016,1.2
		c0.799,0.305,1.983,0.695,3.552,1.176c2.335,0.672,4.264,1.344,5.784,2.016c1.52,0.672,2.824,1.704,3.912,3.097
		c1.088,1.392,1.632,3.208,1.632,5.447c0,2.24-0.593,4.152-1.776,5.736c-1.185,1.584-2.808,2.776-4.872,3.576s-4.361,1.2-6.888,1.2
		c-2.784,0-5.561-0.488-8.328-1.464c-2.768-0.977-5.16-2.312-7.176-4.009l3.408-6.863c1.696,1.504,3.704,2.735,6.024,3.695
		c2.319,0.96,4.375,1.44,6.168,1.44c1.312,0,2.344-0.24,3.096-0.72c0.751-0.48,1.128-1.184,1.128-2.112
		c0-0.769-0.28-1.408-0.84-1.92c-0.56-0.512-1.265-0.92-2.112-1.225c-0.848-0.304-2.04-0.663-3.576-1.079
		c-2.304-0.641-4.208-1.288-5.712-1.944c-1.504-0.655-2.792-1.647-3.864-2.977c-1.072-1.327-1.608-3.096-1.608-5.304
		c0-2.08,0.552-3.903,1.656-5.472c1.104-1.567,2.671-2.776,4.704-3.624c2.032-0.848,4.392-1.272,7.08-1.272
		c2.432,0,4.832,0.345,7.2,1.032c2.368,0.688,4.447,1.608,6.24,2.76l-3.312,7.009C146.198,68.819,144.286,67.954,142.254,67.282z"/>
	<path fill="#FFFFFF" d="M175.878,69.563c1.983,1.648,2.992,3.96,3.024,6.936v16.896h-8.4v-2.928
		c-1.728,2.208-4.336,3.312-7.824,3.312c-2.752,0-4.92-0.744-6.504-2.231c-1.584-1.488-2.376-3.448-2.376-5.88
		c0-2.464,0.855-4.384,2.568-5.761c1.711-1.375,4.168-2.079,7.368-2.111h6.768v-0.288c0-1.248-0.425-2.208-1.272-2.88
		c-0.849-0.673-2.072-1.009-3.672-1.009c-1.088,0-2.312,0.177-3.672,0.528c-1.36,0.353-2.729,0.864-4.104,1.536l-2.352-5.76
		c2.112-0.96,4.136-1.672,6.072-2.137c1.936-0.463,3.943-0.695,6.024-0.695C171.11,67.091,173.894,67.915,175.878,69.563z
		 M168.678,87.034c0.96-0.624,1.567-1.432,1.824-2.424v-2.256h-5.088c-2.4,0-3.6,0.896-3.6,2.688c0,0.896,0.312,1.607,0.936,2.136
		c0.624,0.527,1.479,0.792,2.568,0.792C166.598,87.971,167.718,87.658,168.678,87.034z"/>
	<path fill="#FFFFFF" d="M207.415,68.795c1.823,1.104,3.239,2.672,4.248,4.703c1.008,2.033,1.512,4.377,1.512,7.032
		c0,2.624-0.488,4.929-1.465,6.912c-0.977,1.984-2.368,3.521-4.176,4.608c-1.809,1.088-3.896,1.632-6.264,1.632
		c-1.632,0-3.113-0.312-4.439-0.937c-1.329-0.624-2.457-1.527-3.385-2.712v3.36h-8.544V57.779h8.544v13.008
		c1.888-2.431,4.432-3.647,7.633-3.647C203.478,67.139,205.59,67.691,207.415,68.795z M203.022,84.994
		c1.039-1.184,1.561-2.735,1.561-4.655s-0.521-3.48-1.561-4.681c-1.04-1.199-2.393-1.8-4.057-1.8c-1.631,0-2.959,0.601-3.983,1.8
		c-1.024,1.2-1.536,2.761-1.536,4.681s0.512,3.472,1.536,4.655c1.024,1.185,2.353,1.776,3.983,1.776
		C200.629,86.771,201.982,86.179,203.022,84.994z"/>
	<path fill="#FFFFFF" d="M237.654,69.563c1.983,1.648,2.991,3.96,3.024,6.936v16.896h-8.4v-2.928
		c-1.729,2.208-4.336,3.312-7.824,3.312c-2.752,0-4.92-0.744-6.504-2.231c-1.584-1.488-2.376-3.448-2.376-5.88
		c0-2.464,0.855-4.384,2.567-5.761c1.712-1.375,4.168-2.079,7.369-2.111h6.768v-0.288c0-1.248-0.425-2.208-1.271-2.88
		c-0.85-0.673-2.072-1.009-3.673-1.009c-1.088,0-2.312,0.177-3.672,0.528c-1.36,0.353-2.729,0.864-4.104,1.536l-2.352-5.76
		c2.112-0.96,4.136-1.672,6.072-2.137c1.936-0.463,3.943-0.695,6.023-0.695C232.885,67.091,235.668,67.915,237.654,69.563z
		 M230.454,87.034c0.96-0.624,1.567-1.432,1.824-2.424v-2.256h-5.088c-2.4,0-3.6,0.896-3.6,2.688c0,0.896,0.312,1.607,0.936,2.136
		c0.624,0.527,1.479,0.792,2.568,0.792C228.374,87.971,229.494,87.658,230.454,87.034z"/>
	<path fill="#FFFFFF" d="M272.645,57.779v35.616h-8.543v-3.36c-0.896,1.217-1.992,2.137-3.289,2.761
		c-1.295,0.624-2.76,0.936-4.392,0.936c-2.399,0-4.513-0.56-6.336-1.68c-1.824-1.12-3.24-2.695-4.248-4.729
		c-1.009-2.031-1.513-4.375-1.513-7.031c0-2.624,0.496-4.928,1.488-6.912s2.384-3.521,4.176-4.608
		c1.793-1.088,3.872-1.632,6.24-1.632c1.664,0,3.16,0.32,4.488,0.96c1.328,0.641,2.455,1.553,3.385,2.736V57.779H272.645z
		 M262.565,85.211c1.023-1.2,1.537-2.761,1.537-4.681c0-1.951-0.514-3.52-1.537-4.704c-1.023-1.184-2.368-1.775-4.031-1.775
		c-1.664,0-3.018,0.6-4.057,1.8c-1.04,1.2-1.56,2.76-1.56,4.68s0.52,3.48,1.56,4.681c1.039,1.199,2.393,1.8,4.057,1.8
		C260.197,87.011,261.542,86.41,262.565,85.211z"/>
	<path fill="#FFFFFF" d="M300.582,70.883c2.271,2.496,3.407,5.92,3.407,10.271c0,0.672-0.016,1.185-0.047,1.536h-18.049
		c0.416,1.473,1.136,2.601,2.16,3.384c1.023,0.785,2.271,1.177,3.744,1.177c1.119,0,2.199-0.224,3.24-0.673
		c1.039-0.447,1.992-1.104,2.855-1.968l4.465,4.464c-1.345,1.505-2.969,2.648-4.873,3.433s-4.056,1.176-6.455,1.176
		c-2.784,0-5.217-0.544-7.297-1.632s-3.672-2.624-4.775-4.608c-1.104-1.983-1.656-4.288-1.656-6.912c0-2.655,0.56-4.999,1.68-7.032
		c1.12-2.031,2.704-3.6,4.752-4.703c2.048-1.104,4.416-1.656,7.104-1.656C295.061,67.139,298.309,68.387,300.582,70.883z
		 M295.686,78.131c0-1.504-0.441-2.712-1.32-3.624c-0.881-0.912-2.041-1.368-3.48-1.368c-1.344,0-2.472,0.448-3.384,1.344
		c-0.912,0.896-1.513,2.112-1.8,3.648H295.686z"/>
	<path fill="#FFFFFF" d="M308.597,57.779h8.544v35.616h-8.544V57.779z"/>
	<path fill="#FFFFFF" d="M324.149,57.779h8.544v35.616h-8.544V57.779z"/>
</g>
<g enable-background="new    ">
	<path fill="#FFFFFF" d="M141.643,108.795h1.8l-4.266,12.6h-1.8l-3.258-10.404l-3.312,10.404h-1.782l-4.248-12.6h1.854l3.33,10.746
		l3.312-10.746H135l3.33,10.746L141.643,108.795z"/>
	<path fill="#FFFFFF" d="M150.067,121.395v-1.332c-0.708,0.936-1.818,1.404-3.33,1.404c-0.66,0-1.239-0.126-1.737-0.378
		s-0.882-0.601-1.152-1.044c-0.27-0.444-0.405-0.942-0.405-1.494c0-0.853,0.315-1.527,0.945-2.025s1.509-0.753,2.637-0.765h3.024
		v-0.45c0-0.672-0.207-1.19-0.621-1.557s-1.017-0.55-1.809-0.55c-0.96,0-1.938,0.343-2.934,1.026l-0.702-1.152
		c0.684-0.443,1.316-0.765,1.899-0.963c0.582-0.197,1.275-0.297,2.079-0.297c1.188,0,2.106,0.291,2.754,0.873
		s0.978,1.396,0.99,2.439l0.018,6.264H150.067z M149.068,119.514c0.546-0.378,0.873-0.879,0.981-1.503v-0.954h-2.79
		c-0.756,0-1.317,0.114-1.683,0.342c-0.366,0.229-0.549,0.588-0.549,1.08s0.186,0.882,0.558,1.17
		c0.372,0.288,0.87,0.432,1.494,0.432C147.859,120.08,148.521,119.892,149.068,119.514z"/>
	<path fill="#FFFFFF" d="M159.822,120.765c-0.732,0.468-1.476,0.702-2.232,0.702s-1.368-0.226-1.836-0.675
		c-0.468-0.45-0.702-1.132-0.702-2.044v-5.273h-1.35v-1.278h1.35v-2.556h1.692v2.556h2.916v1.278h-2.916v4.968
		c0,0.528,0.096,0.906,0.288,1.134c0.192,0.229,0.48,0.343,0.864,0.343c0.456,0,0.948-0.15,1.476-0.45L159.822,120.765z"/>
	<path fill="#FFFFFF" d="M168.894,113.123c0.756,0.871,1.134,2.079,1.134,3.628c0,0.239-0.006,0.42-0.018,0.54h-7.524
		c0.132,0.852,0.489,1.529,1.071,2.033s1.299,0.756,2.151,0.756c0.563,0,1.089-0.102,1.575-0.306s0.909-0.492,1.269-0.864
		l0.918,0.954c-0.468,0.504-1.032,0.895-1.692,1.17c-0.66,0.276-1.392,0.414-2.196,0.414c-0.936,0-1.767-0.2-2.493-0.603
		s-1.29-0.969-1.692-1.701c-0.402-0.731-0.603-1.566-0.603-2.502c0-0.937,0.201-1.767,0.603-2.493
		c0.402-0.726,0.963-1.296,1.683-1.71c0.72-0.414,1.542-0.621,2.466-0.621C167.022,111.819,168.138,112.254,168.894,113.123z
		 M168.516,115.994c-0.048-0.863-0.336-1.545-0.864-2.043c-0.528-0.497-1.224-0.747-2.088-0.747c-0.84,0-1.539,0.252-2.097,0.757
		c-0.558,0.504-0.891,1.182-0.999,2.033H168.516z"/>
	<path fill="#FFFFFF" d="M175.32,112.367c0.576-0.354,1.26-0.536,2.052-0.549v1.62c-0.972-0.036-1.758,0.216-2.358,0.756
		s-0.942,1.267-1.026,2.178v5.022h-1.674v-9.522h1.674v2.053C174.3,113.24,174.744,112.722,175.32,112.367z"/>
	<path fill="#FFFFFF" d="M191.52,110.64c-0.637-0.282-1.29-0.423-1.962-0.423c-0.888,0-1.704,0.216-2.448,0.647
		c-0.744,0.433-1.332,1.018-1.764,1.755c-0.432,0.738-0.648,1.552-0.648,2.439c0,0.876,0.217,1.686,0.648,2.43
		s1.02,1.332,1.764,1.765c0.744,0.432,1.561,0.647,2.448,0.647c0.659,0,1.308-0.135,1.944-0.405c0.636-0.27,1.199-0.639,1.691-1.106
		l1.045,1.134c-0.637,0.624-1.375,1.113-2.215,1.467c-0.84,0.354-1.691,0.531-2.556,0.531c-1.2,0-2.298-0.285-3.294-0.854
		c-0.996-0.57-1.782-1.348-2.358-2.331c-0.575-0.984-0.864-2.07-0.864-3.259c0-1.176,0.291-2.253,0.873-3.23
		c0.582-0.979,1.377-1.749,2.385-2.313c1.009-0.563,2.118-0.846,3.33-0.846c0.877,0,1.726,0.165,2.547,0.495
		c0.822,0.33,1.533,0.795,2.134,1.395l-1.026,1.242C192.713,111.315,192.156,110.922,191.52,110.64z"/>
	<path fill="#FFFFFF" d="M202.689,112.431c0.738,0.408,1.313,0.975,1.728,1.701c0.414,0.726,0.621,1.557,0.621,2.493
		c0,0.936-0.207,1.77-0.621,2.502c-0.414,0.731-0.989,1.302-1.728,1.71c-0.737,0.407-1.581,0.611-2.528,0.611
		c-0.961,0-1.81-0.204-2.548-0.611c-0.737-0.408-1.313-0.976-1.728-1.701c-0.414-0.727-0.621-1.563-0.621-2.511
		c0-0.937,0.207-1.768,0.621-2.493c0.414-0.727,0.99-1.293,1.728-1.701c0.738-0.408,1.587-0.612,2.548-0.612
		C201.108,111.819,201.952,112.023,202.689,112.431z M198.495,113.709c-0.486,0.287-0.863,0.687-1.134,1.196
		c-0.271,0.511-0.405,1.089-0.405,1.737c0,0.66,0.135,1.248,0.405,1.764c0.271,0.517,0.647,0.915,1.134,1.197
		s1.041,0.423,1.666,0.423c0.611,0,1.16-0.141,1.646-0.423s0.863-0.681,1.134-1.197c0.271-0.516,0.405-1.104,0.405-1.764
		c0-0.648-0.135-1.227-0.405-1.737c-0.271-0.51-0.647-0.909-1.134-1.196c-0.486-0.288-1.035-0.433-1.646-0.433
		C199.536,113.277,198.981,113.421,198.495,113.709z"/>
	<path fill="#FFFFFF" d="M222.246,112.809c0.624,0.66,0.937,1.56,0.937,2.7v5.886h-1.692v-5.436c0-0.805-0.22-1.435-0.657-1.891
		s-1.041-0.684-1.809-0.684c-0.9,0.024-1.608,0.342-2.124,0.954c-0.517,0.611-0.774,1.397-0.774,2.357v4.698h-1.691v-5.436
		c0-0.805-0.217-1.435-0.648-1.891s-1.038-0.684-1.818-0.684c-0.899,0.024-1.61,0.342-2.133,0.954
		c-0.521,0.611-0.783,1.397-0.783,2.357v4.698h-1.674v-9.522h1.674v1.998c0.625-1.344,1.807-2.027,3.547-2.052
		c0.875,0,1.604,0.21,2.187,0.63c0.582,0.421,0.976,1.008,1.179,1.765c0.588-1.572,1.824-2.37,3.709-2.395
		C220.764,111.819,221.622,112.149,222.246,112.809z"/>
	<path fill="#FFFFFF" d="M241.038,112.809c0.624,0.66,0.936,1.56,0.936,2.7v5.886h-1.691v-5.436c0-0.805-0.219-1.435-0.657-1.891
		s-1.041-0.684-1.809-0.684c-0.9,0.024-1.608,0.342-2.124,0.954c-0.516,0.611-0.773,1.397-0.773,2.357v4.698h-1.693v-5.436
		c0-0.805-0.215-1.435-0.647-1.891s-1.038-0.684-1.817-0.684c-0.9,0.024-1.611,0.342-2.133,0.954
		c-0.522,0.611-0.783,1.397-0.783,2.357v4.698h-1.674v-9.522h1.674v1.998c0.623-1.344,1.805-2.027,3.545-2.052
		c0.877,0,1.605,0.21,2.188,0.63c0.582,0.421,0.975,1.008,1.18,1.765c0.588-1.572,1.823-2.37,3.707-2.395
		C239.555,111.819,240.414,112.149,241.038,112.809z"/>
	<path fill="#FFFFFF" d="M253.385,111.872v9.522h-1.691v-2.016c-0.625,1.355-1.801,2.046-3.529,2.069
		c-1.104,0-1.967-0.326-2.592-0.98c-0.623-0.654-0.936-1.558-0.936-2.709v-5.887h1.691v5.437c0,0.804,0.219,1.431,0.658,1.881
		c0.438,0.45,1.041,0.675,1.809,0.675c0.888-0.012,1.593-0.326,2.115-0.944c0.521-0.618,0.783-1.407,0.783-2.367v-4.681H253.385z"/>
	<path fill="#FFFFFF" d="M264.563,112.8c0.637,0.654,0.955,1.557,0.955,2.709v5.886h-1.675v-5.436c0-0.805-0.226-1.432-0.675-1.882
		c-0.45-0.449-1.071-0.675-1.863-0.675c-0.852,0.013-1.545,0.285-2.078,0.819c-0.535,0.534-0.838,1.227-0.91,2.079v5.094h-1.674
		v-9.522h1.674v2.017c0.637-1.356,1.842-2.046,3.619-2.07C263.051,111.819,263.927,112.146,264.563,112.8z"/>
	<path fill="#FFFFFF" d="M270.081,108.381c0.197,0.204,0.297,0.462,0.297,0.773c0,0.312-0.1,0.57-0.297,0.774
		c-0.198,0.204-0.447,0.306-0.748,0.306c-0.299,0-0.549-0.102-0.746-0.306c-0.198-0.204-0.297-0.462-0.297-0.774
		c0-0.312,0.099-0.569,0.297-0.773c0.197-0.204,0.447-0.307,0.746-0.307C269.633,108.074,269.882,108.177,270.081,108.381z
		 M268.505,111.872h1.674v9.522h-1.674V111.872z"/>
	<path fill="#FFFFFF" d="M278.549,120.765c-0.732,0.468-1.477,0.702-2.232,0.702s-1.368-0.226-1.836-0.675
		c-0.469-0.45-0.702-1.132-0.702-2.044v-5.273h-1.351v-1.278h1.351v-2.556h1.692v2.556h2.916v1.278h-2.916v4.968
		c0,0.528,0.096,0.906,0.287,1.134c0.192,0.229,0.48,0.343,0.865,0.343c0.455,0,0.947-0.15,1.475-0.45L278.549,120.765z"/>
	<path fill="#FFFFFF" d="M282.715,124.401c-0.498,0.372-1.082,0.559-1.754,0.559c-0.408,0-0.781-0.061-1.117-0.181
		s-0.66-0.306-0.971-0.558l0.719-1.314c0.42,0.3,0.847,0.45,1.278,0.45c0.72,0,1.261-0.408,1.62-1.224l0.359-0.847l-3.941-9.414
		h1.764l3.024,7.633l2.862-7.633h1.71l-4.356,10.872C283.613,123.477,283.213,124.029,282.715,124.401z"/>
</g>
</svg>
